<svg id="Capa_1" data-name="Capa 1" xmlns="http://www.w3.org/2000/svg" viewBox="0 0 466.3 466.3"><defs><style>.cls-1{fill:#f8f8f8;}.cls-2{fill:#dfdfdf;}.cls-3{fill:#ec6442;}</style></defs><title>Android</title><circle class="cls-1" cx="233.15" cy="233.15" r="231.65"/><path class="cls-2" d="M256,489.17a233.16,233.16,0,0,1-164.87-398A233.15,233.15,0,1,1,420.88,420.88,231.62,231.62,0,0,1,256,489.17Zm0-463.3C129.11,25.87,25.87,129.11,25.87,256S129.11,486.17,256,486.17,486.17,382.92,486.17,256,382.92,25.87,256,25.87Z" transform="translate(-22.87 -22.87)"/><path class="cls-3" d="M316,220H196a6,6,0,0,0-6,6v96a30,30,0,0,0,24,29.4V382a18,18,0,0,0,36,0V352h12v30a18,18,0,1,0,36,0v-30.6A30,30,0,0,0,322,322V226A6,6,0,0,0,316,220Z" transform="translate(-22.87 -22.87)"/><path class="cls-3" d="M287.42,144l10.11-23.6a6,6,0,1,0-11-4.72l-10.12,23.62a65.21,65.21,0,0,0-40.72,0l-10.14-23.62a6,6,0,1,0-11,4.72L224.63,144A66,66,0,0,0,190,202a6,6,0,0,0,6,6H316a6,6,0,0,0,6-6A66,66,0,0,0,287.42,144ZM232,184a6,6,0,1,1,6-6A6,6,0,0,1,232,184Zm48,0a6,6,0,1,1,6-6A6,6,0,0,1,280,184Z" transform="translate(-22.87 -22.87)"/><path class="cls-3" d="M352,220a18,18,0,0,0-18,18v60a18,18,0,0,0,36,0V238A18,18,0,0,0,352,220Z" transform="translate(-22.87 -22.87)"/><path class="cls-3" d="M160,220a18,18,0,0,0-18,18v60a18,18,0,0,0,36,0V238A18,18,0,0,0,160,220Z" transform="translate(-22.87 -22.87)"/></svg>