<svg width="69" height="79" viewBox="0 0 69 79" fill="none" xmlns="http://www.w3.org/2000/svg">
<path d="M10.9452 30.5665V50.715C10.9525 51.3464 10.8333 51.973 10.5945 52.5582C10.3557 53.1434 10.002 53.6757 9.55402 54.1239C9.10605 54.5721 8.57275 54.9273 7.98518 55.169C7.39761 55.4106 6.76751 55.5337 6.13154 55.5312C3.44976 55.5312 0.854492 53.3777 0.854492 50.715V30.5665C0.854492 27.9406 3.44976 25.7809 6.13154 25.7809C7.40726 25.7874 8.62877 26.2939 9.53027 27.1901C10.4318 28.0864 10.9403 29.2999 10.9452 30.5665ZM12.8422 57.8811C12.8405 58.5578 12.9735 59.2282 13.2334 59.8538C13.4933 60.4794 13.875 61.0479 14.3566 61.5267C14.8383 62.0055 15.4104 62.3852 16.0402 62.644C16.6699 62.9028 17.345 63.0356 18.0265 63.0348H21.5116L21.5672 73.6612C21.5672 80.0849 31.2377 80.0297 31.2377 73.6612V63.0348H37.7568V73.6612C37.7568 80.0481 47.4829 80.0665 47.4829 73.6612V63.0348H51.0236C51.7028 63.0324 52.3748 62.8971 53.0014 62.6368C53.628 62.3765 54.1968 61.9962 54.6753 61.5177C55.1538 61.0391 55.5328 60.4716 55.7904 59.8477C56.0481 59.2237 56.1795 58.5555 56.177 57.8811V26.6706H12.8422V57.8811ZM56.3006 24.9834H12.6506C12.6506 17.535 17.1367 11.0623 23.7732 7.68781L20.4303 1.55246C19.9545 0.693512 21.1965 0.153602 21.6228 0.883708L25.0214 7.07427C28.014 5.77679 31.2442 5.10705 34.5096 5.10705C37.775 5.10705 41.0052 5.77679 43.9978 7.07427L47.3778 0.902114C47.4212 0.825572 47.4794 0.75827 47.549 0.70405C47.6186 0.64983 47.6983 0.609754 47.7835 0.586111C47.8687 0.562468 47.9578 0.55572 48.0456 0.566252C48.1335 0.576785 48.2183 0.604392 48.2954 0.647497C48.3725 0.690603 48.4403 0.748362 48.4949 0.817477C48.5495 0.886593 48.5899 0.965711 48.6137 1.05031C48.6375 1.13492 48.6443 1.22335 48.6337 1.31056C48.6231 1.39777 48.5953 1.48205 48.5519 1.5586L45.2089 7.69394C51.8145 11.0623 56.3006 17.535 56.3006 24.9834ZM26.387 15.3263C26.387 14.8382 26.1917 14.37 25.8441 14.0248C25.4964 13.6796 25.0249 13.4857 24.5333 13.4857C24.0867 13.5433 23.6766 13.7603 23.3794 14.0962C23.0822 14.4321 22.9183 14.8639 22.9183 15.311C22.9183 15.7581 23.0822 16.1899 23.3794 16.5258C23.6766 16.8616 24.0867 17.0786 24.5333 17.1362C25.0196 17.1363 25.4865 16.9466 25.8333 16.608C26.18 16.2695 26.3789 15.8091 26.387 15.3263ZM46.2594 15.3263C46.252 14.9702 46.1386 14.6242 45.9335 14.3319C45.7284 14.0397 45.4407 13.8143 45.1067 13.6842C44.7728 13.554 44.4075 13.525 44.0569 13.6007C43.7064 13.6764 43.3862 13.8535 43.1369 14.1096C42.8875 14.3657 42.7202 14.6894 42.6558 15.0398C42.5915 15.3903 42.6331 15.7518 42.7754 16.0788C42.9177 16.4058 43.1543 16.6836 43.4554 16.8773C43.7566 17.0709 44.1087 17.1717 44.4674 17.1669C44.9483 17.151 45.4041 16.9501 45.7384 16.6066C46.0728 16.2631 46.2596 15.804 46.2594 15.3263ZM62.8691 25.7564C62.2357 25.7548 61.6082 25.8775 61.0227 26.1174C60.4372 26.3573 59.9053 26.7098 59.4574 27.1545C59.0095 27.5992 58.6545 28.1274 58.4129 28.7087C58.1712 29.29 58.0477 29.9131 58.0493 30.542V50.715C58.0469 51.3456 58.1697 51.9705 58.4106 52.5539C58.6516 53.1373 59.0061 53.6678 59.4537 54.1152C59.9013 54.5625 60.4334 54.9178 61.0194 55.1608C61.6055 55.4037 62.234 55.5296 62.8691 55.5312C65.5694 55.5312 68.1462 53.3777 68.1462 50.715V30.5665C68.1462 27.8854 65.5509 25.7809 62.8691 25.7809V25.7564Z" fill="#A4C639"/>
</svg>
