<svg id="Capa_1" data-name="Capa 1" xmlns="http://www.w3.org/2000/svg" viewBox="0 0 405.33 512.04"><defs><style>.cls-1{fill:#ed6543;}</style></defs><path class="cls-1" d="M362.68,192H149.35a10.67,10.67,0,0,0-10.67,10.67V373.37a53.42,53.42,0,0,0,42.67,52.26V480a32,32,0,0,0,64,0V426.7h21.33V480a32,32,0,0,0,64,0v-54.4a53.4,53.4,0,0,0,42.67-52.26V202.7A10.66,10.66,0,0,0,362.68,192Z" transform="translate(-53.35 0)"/><path class="cls-1" d="M311.85,56.85l18-42A10.66,10.66,0,0,0,310.22,6.5l-18,42a116.28,116.28,0,0,0-72.41,0l-18-42a10.65,10.65,0,1,0-19.58,8.38l18,42A117.4,117.4,0,0,0,138.68,160a10.67,10.67,0,0,0,10.67,10.67H362.68A10.67,10.67,0,0,0,373.35,160,117.43,117.43,0,0,0,311.85,56.85ZM213.35,128A10.67,10.67,0,1,1,224,117.37,10.67,10.67,0,0,1,213.35,128Zm85.33,0a10.67,10.67,0,1,1,10.67-10.66A10.67,10.67,0,0,1,298.68,128Z" transform="translate(-53.35 0)"/><path class="cls-1" d="M426.68,192a32,32,0,0,0-32,32V330.7a32,32,0,0,0,64,0V224A32,32,0,0,0,426.68,192Z" transform="translate(-53.35 0)"/><path class="cls-1" d="M85.35,192a32,32,0,0,0-32,32V330.7a32,32,0,0,0,64,0V224A32,32,0,0,0,85.35,192Z" transform="translate(-53.35 0)"/></svg>