<svg width="79" height="43" viewBox="0 0 79 43" fill="none" xmlns="http://www.w3.org/2000/svg">
<path d="M41.8014 14.4167C38.8973 6.16458 31.0348 0.25 21.791 0.25C10.0681 0.25 0.541016 9.77708 0.541016 21.5C0.541016 33.2229 10.0681 42.75 21.791 42.75C31.0348 42.75 38.8973 36.8354 41.8014 28.5833H57.2077V42.75H71.3744V28.5833H78.4577V14.4167H41.8014ZM21.791 28.5833C17.8952 28.5833 14.7077 25.3958 14.7077 21.5C14.7077 17.6042 17.8952 14.4167 21.791 14.4167C25.6869 14.4167 28.8744 17.6042 28.8744 21.5C28.8744 25.3958 25.6869 28.5833 21.791 28.5833Z" fill="#4B4C4F"/>
</svg>
