<?xml version="1.0" encoding="utf-8"?>
<!-- Generator: Adobe Illustrator 23.0.3, SVG Export Plug-In . SVG Version: 6.00 Build 0)  -->
<svg version="1.1" id="Layer_1" xmlns="http://www.w3.org/2000/svg" xmlns:xlink="http://www.w3.org/1999/xlink" x="0px" y="0px"
	 viewBox="0 0 400 200" style="enable-background:new 0 0 400 200;" xml:space="preserve">
<style type="text/css">
	.st0{fill:none;}
	.st1{fill:#CCCCCC;}
	.st2{fill:#F2BC24;}
	.st3{fill:#75DFD4;}
	.st4{fill:#F26C4A;}
	.st5{fill:#FFFFFF;}
</style>
<rect class="st0" width="400" height="200"/>
<g>
	<path class="st1" d="M28.6,128.7c-0.1,0-0.2,0-0.2,0c-15.8-7.4-22.7-26.1-15.4-42c4.1-8.8,12-15.2,21.4-17.5
		c0.3-0.1,0.6,0.1,0.6,0.4c0.1,0.3-0.1,0.6-0.4,0.6l0,0C18.2,74.1,8,90.6,11.9,107c2.2,9.1,8.4,16.8,16.9,20.7
		c0.3,0.1,0.4,0.4,0.3,0.7C29,128.6,28.8,128.7,28.6,128.7L28.6,128.7z"/>
	<path class="st1" d="M48.9,130.7c-0.3,0-0.5-0.2-0.5-0.6c0-0.2,0.2-0.5,0.4-0.5c16.4-4,26.4-20.4,22.5-36.8
		c-2.2-8.9-8.2-16.4-16.5-20.3c-0.3-0.1-0.4-0.4-0.2-0.7s0.4-0.4,0.7-0.2C71,79.1,77.7,98,70.1,113.7c-4.1,8.6-11.8,14.8-21,17
		C49,130.7,49,130.7,48.9,130.7z"/>
	<path class="st2" d="M35.5,144.8c-0.3,0-0.6-0.2-0.6-0.5c0-0.1,0-0.1,0-0.2l4.7-15.9c0.1-0.3,0.4-0.4,0.7-0.4
		c0.3,0.1,0.4,0.4,0.4,0.7l0,0L36,144.4C35.9,144.6,35.7,144.8,35.5,144.8z"/>
	<path class="st2" d="M33.4,152.2c-0.3,0-0.6-0.2-0.6-0.5c0-0.1,0-0.1,0-0.2l0.9-3c0.1-0.3,0.4-0.4,0.7-0.4c0.3,0.1,0.4,0.4,0.4,0.7
		l0,0l-0.9,3C33.8,152,33.6,152.2,33.4,152.2z"/>
	<path class="st2" d="M41.3,125.2c-0.3,0-0.6-0.2-0.6-0.5c0-0.1,0-0.1,0-0.2l0.7-2.5c0.1-0.3,0.4-0.4,0.7-0.4
		c0.3,0.1,0.4,0.4,0.4,0.7l0,0l-0.7,2.5C41.7,125,41.5,125.2,41.3,125.2z"/>
	<path class="st2" d="M41.4,138.2c-0.3,0-0.6-0.2-0.6-0.5c0-0.1,0-0.1,0-0.2l6.7-22.6c0.1-0.3,0.4-0.4,0.7-0.4
		c0.3,0.1,0.4,0.4,0.4,0.7l0,0l-6.7,22.6C41.8,138,41.6,138.1,41.4,138.2z"/>
	<path class="st2" d="M42.4,74.4c-0.3,0-0.6-0.2-0.6-0.5c0-0.1,0-0.1,0-0.2l7.6-25.6c0.1-0.3,0.4-0.4,0.7-0.4s0.4,0.4,0.4,0.7l0,0
		L42.9,74C42.8,74.2,42.7,74.4,42.4,74.4z"/>
	<path class="st2" d="M41.5,64.6c-0.3,0-0.6-0.2-0.6-0.5c0-0.1,0-0.1,0-0.2l0.9-3c0.1-0.3,0.4-0.4,0.7-0.4c0.3,0.1,0.4,0.4,0.4,0.7
		l-0.9,3C41.9,64.4,41.7,64.6,41.5,64.6z"/>
	<path class="st2" d="M35.4,85.4c-0.3,0-0.6-0.2-0.6-0.5c0-0.1,0-0.1,0-0.2l4.6-15.4c0.1-0.3,0.4-0.4,0.7-0.4
		c0.3,0.1,0.4,0.4,0.4,0.7l0,0L35.8,85C35.8,85.2,35.6,85.4,35.4,85.4z"/>
	<path class="st3" d="M44.4,90.4c2,0.6,3.8,1.8,5,3.5c-0.8-1.4-1.3-2.9-1.6-4.5c-0.1-0.6-0.2-1.3-0.3-2c-1.3-0.6-2.7-1-4.1-1.2
		c-0.4,0.6-0.9,1.1-1.4,1.6c-1.1,1.2-2.3,2.2-3.7,3C40.2,89.9,42.4,89.8,44.4,90.4z"/>
	<path class="st3" d="M65.7,105.7L65.7,105.7c-1.8-1.3-8.2-6.2-11.8-11.8c1,2.3,1.4,4.9,1,7.4c0.6,0.6,1.3,1.3,2,2
		c0.1,0.1,0.1,0.1,0.2,0.2c-0.1,0-0.2,0-0.2,0c-1,0.2-1.8,0.4-2.7,0.7c-2.5,0.7-4.8,1.6-7.1,2.8c-0.3,0.2-0.6,0.4-1,0.6
		c-1.5,0.9-2.9,2-4.1,3.2c-0.4,0.5-0.9,1-1.3,1.5c-1.4,1.8-2.6,3.6-3.8,5.5c0-2.2-0.1-4.5-0.4-6.7c-0.1-0.7-0.2-1.3-0.3-2
		c-0.4-1.7-1-3.4-1.8-4.9c-0.2-0.3-0.4-0.6-0.5-0.9c-2-4-0.8-9,2.9-11.6c-2.2,1.1-4.4,2-6.8,2.6c-0.4,0.9-0.6,1.9-0.8,2.9
		c-0.4,2.6,0,5.4,1.2,7.8c0.3,0.4,0.6,0.9,0.8,1.4c0.6,1.1,1,2.3,1.3,3.5c1.8,8.8-0.7,23.7-1.8,29.8v0.1c0,0.1,0,0.2,0.2,0.2
		c0,0,0,0,0.1,0s0.1,0,0.2-0.1v-0.1c2.2-5.8,7.8-19.9,13.8-26.4c0.9-0.9,1.8-1.7,2.9-2.4c0.5-0.3,1-0.6,1.4-0.8
		c6-3.1,14.4-4,16.6-4.2l0,0c0.1,0,0.1-0.1,0.2-0.2C65.8,105.8,65.8,105.7,65.7,105.7z"/>
	<path class="st4" d="M39.4,108.1c-2.2-0.6-4-2-5.2-3.9c0.9,1.6,1.5,3.2,1.8,4.9c0.1,0.6,0.2,1.3,0.3,2c1.3,0.6,2.7,1,4.2,1.2
		c0.4-0.5,0.9-1,1.3-1.5c1.2-1.3,2.6-2.4,4.1-3.2C43.9,108.5,41.6,108.7,39.4,108.1z"/>
	<path class="st4" d="M53.9,93.9c-0.4-0.7-0.9-1.4-1.2-2.2c-0.5-1-0.8-2-1.1-3.1c-1.8-8.8,0.7-23.7,1.8-29.8l0,0l0,0
		c0-0.1,0-0.2-0.2-0.2c-0.1,0-0.2,0-0.2,0.2l0,0l0,0c-2.2,5.8-7.8,19.9-13.9,26.5c-0.8,0.8-1.6,1.5-2.5,2.1
		c-0.7,0.4-1.4,0.9-2.2,1.2c-6,2.9-14.1,3.8-16.2,4l0,0c-0.1,0-0.1,0.1-0.2,0.2c0,0.1,0,0.2,0.1,0.2l0,0c1.8,1.3,8.5,6.4,12,12.2
		c-1.2-2.4-1.6-5.1-1.2-7.8c-0.6-0.7-1.3-1.3-2-2c-0.1-0.1-0.1-0.1-0.2-0.2c0.1,0,0.2,0,0.2,0c0.9-0.2,1.8-0.4,2.7-0.7
		c2.4-0.6,4.6-1.5,6.8-2.6c0.5-0.4,1.1-0.7,1.7-1c1.4-0.8,2.6-1.8,3.7-3c0.4-0.5,0.9-1,1.4-1.6c1.4-1.8,2.6-3.6,3.7-5.5
		c0,0.1,0,0.2,0,0.2c0,0.5,0,1,0,1.6c0,1.6,0.2,3.2,0.4,4.8c0.1,0.7,0.2,1.4,0.3,2c0.3,1.6,0.9,3.1,1.6,4.5c0.4,0.5,0.7,1.1,1,1.7
		c1.8,4.1,0.3,8.9-3.4,11.4c2.3-1.2,4.6-2.1,7.1-2.8c0.4-0.9,0.6-1.9,0.8-2.9C55.2,98.8,54.9,96.2,53.9,93.9z"/>
	<path class="st5" d="M140.7,116.6h-26.8v-14.1h20c0.6,0,1-0.4,1-1v-5.1c0-0.6-0.4-1-1-1h-20V81.6h26.5c0.6,0,1-0.4,1-1v-5.1
		c0-0.6-0.4-1-1-1h-26.7c-3.8-0.2-7,2.8-7.1,6.5c0,0.2,0,0.4,0,0.6v40.5c-0.1,0.8,0.4,1.5,1.2,1.6c0.1,0,0.2,0,0.4,0h32.7
		c0.6,0,1-0.4,1-1v-5.1C141.8,117.1,141.3,116.6,140.7,116.6z"/>
	<path class="st5" d="M190.4,89.1c-5.2,0-9.4,2.1-12,5.8c-2.4-3.7-6.8-5.8-12-5.8c-2.4,0-6.5,0.5-9.8,3.5v-1.9c0-0.6-0.4-1-1-1h-5
		c-0.6,0-1,0.4-1,1v31.9c0,0.6,0.4,1,1,1h5.1c0.6,0,1-0.4,1-1v-18c0-5.2,3.6-8.8,8.8-8.8c5.3,0,8.2,3.1,8.2,8.7v13.2
		c0,0.6,0.4,1,1,1h5c0.6,0,1-0.4,1-1v-13c0-5.2,3.6-8.8,8.8-8.8c5.3,0,8.2,3.1,8.2,8.7v18.1c0,0.6,0.4,1,1,1h5c0.6,0,1-0.4,1-1V103
		C204.7,94.6,199,89.1,190.4,89.1z"/>
	<path class="st5" d="M230.4,89.1c-3.9-0.1-7.7,1.3-10.7,3.8V81.6c0-4.8-2.8-7.1-6.1-7.1l0,0c-0.6,0-1,0.4-1,1v47.1c0,0.6,0.4,1,1,1
		h5.1c0.6,0,1-0.4,1-1v-2.3c2.9,2.6,6.8,4,10.7,3.8c9.7,0,16.9-7.6,16.9-17.6C247.3,96.7,240,89.1,230.4,89.1z M240.3,106.7
		c0,6.3-4.4,10.9-10.4,10.9s-10.4-4.6-10.4-10.9c0-6.3,4.4-10.9,10.4-10.9C235.8,95.9,240.3,100.4,240.3,106.7z"/>
	<path class="st5" d="M275.6,91.1c0-0.7-0.6-1.3-1.2-1.4c-1.4-0.4-2.9-0.5-4.4-0.5c-3.2-0.1-6.2,1.1-8.5,3.3v-1.8c0-0.6-0.4-1-1-1
		h-5c-0.6,0-1,0.4-1,1v31.9c0,0.6,0.4,1,1,1h5c0.6,0,1-0.4,1-1v-17.9c0-5.4,3.1-9,7.6-9c1.6,0,3.2,0.1,4.7,0.5
		c0.6,0.2,1.2,0.3,1.3-0.4C275,96,275.6,91.9,275.6,91.1z"/>
	<path class="st5" d="M313,89.8h-5c-0.6,0-1,0.4-1,1V93c-2.9-2.6-6.8-4-10.7-3.8c-9.7,0-16.9,7.5-16.9,17.6l0,0
		c0,10,7.3,17.6,16.9,17.6c3.9,0.1,7.7-1.2,10.7-3.8v2.2c0,0.6,0.4,1,1,1h5c0.6,0,1-0.4,1-1V90.9C314,90.3,313.6,89.8,313,89.8
		L313,89.8z M296.9,117.6c-6.1,0-10.4-4.6-10.4-10.9c0-6.3,4.4-10.9,10.4-10.9s10.4,4.6,10.4,10.9
		C307.2,113.1,303,117.6,296.9,117.6z"/>
	<path class="st5" d="M347.8,114.2c-0.4-0.4-0.9-0.4-1.3-0.1c0,0,0,0-0.1,0.1c-2.2,2.2-5.1,3.4-8.1,3.4c-6,0-10.3-4.6-10.3-10.9
		c0-6.3,4.4-10.9,10.3-10.9c3,0,6,1.2,8,3.4c0.4,0.4,0.9,0.4,1.3,0.1c0,0,0,0,0.1-0.1l3.2-3.4c0.4-0.3,0.4-0.9,0-1.2l0,0
		c-3-3.4-7.5-5.4-12.6-5.4c-10.1,0-17.5,7.4-17.5,17.6s7.4,17.6,17.5,17.6c4.8,0.1,9.4-1.8,12.6-5.4c0.3-0.4,0.3-0.9,0-1.3
		L347.8,114.2z"/>
	<path class="st5" d="M374,89.1c-9.8,0-16.8,7.4-16.8,17.6c0,10.4,7.1,17.6,17.1,17.6c5.7,0,10-1.7,13.8-5.3
		c0.4-0.4,0.4-0.9,0.1-1.3l-2.7-3.4c-0.2-0.2-0.4-0.4-0.7-0.4s-0.6,0.1-0.8,0.2c-2.6,2.4-5.9,3.8-9.4,3.8c-5.4,0-9.2-3.2-10.1-8.4
		h24.4c0.5,0,0.9-0.4,1-0.8c0.1-0.7,0.1-1.3,0.1-2l0,0C390,96.5,383.2,89.1,374,89.1z M364.6,103.5c1.1-4.8,4.6-7.8,9.4-7.8
		c4.5,0,7.9,3.1,8.8,7.8H364.6z"/>
</g>
</svg>
