<svg width="179" height="29" viewBox="0 0 179 29" fill="none" xmlns="http://www.w3.org/2000/svg">
<path d="M55.7158 24.5991C50.7066 24.5991 47.5967 20.9617 47.5967 15.1145C47.5967 9.48459 50.8617 5.6982 55.7158 5.6982C60.4518 5.6982 63.7603 9.24251 63.7603 14.32V16.418H51.9418V17.8146C51.9418 19.9499 53.506 21.4458 55.753 21.4458C57.7579 21.4458 59.1607 20.3161 59.4339 18.4912H63.5927C62.9596 22.3211 60.0298 24.5991 55.7158 24.5991ZM55.7158 8.85145C53.5619 8.85145 51.9418 10.397 51.9418 12.4454V13.2648H59.4897V12.4454C59.4897 10.397 57.8697 8.85145 55.7158 8.85145Z" fill="#EEFF04"/>
<path d="M88.4649 24.1646V12.6192C88.4649 10.2357 87.5214 9.02526 85.6655 9.02526C83.406 9.02526 81.8915 10.906 81.8915 13.6993V24.1584H77.7265V12.613C77.7265 10.2295 76.783 9.01905 74.927 9.01905C72.6676 9.01905 71.153 10.8998 71.153 13.6931V24.1522H66.988V6.1265H71.153V8.70248C72.2393 6.67894 74.1759 5.69199 76.4043 5.69199C78.8872 5.69199 80.6128 6.83412 81.3949 9.00043L81.5253 9.36665L81.7053 9.02526C82.8784 6.78446 84.6599 5.69199 87.1428 5.69199C90.6809 5.69199 92.6299 8.03831 92.6299 12.2964V24.1646H88.4649Z" fill="#EEFF04"/>
<path d="M105.957 24.5991C103.704 24.5991 101.897 23.6184 100.73 21.7624L100.414 21.2596V24.1708H96.2487V0H100.414V9.03767L100.73 8.53489C101.897 6.67894 103.704 5.6982 105.957 5.6982C108.247 5.6982 110.041 6.61687 111.289 8.43557C112.425 10.0929 113.027 12.4144 113.027 15.1518C113.027 17.8891 112.425 20.2106 111.289 21.8679C110.041 23.6804 108.247 24.5991 105.957 24.5991ZM104.734 8.85145C101.953 8.85145 100.42 10.6019 100.42 13.78V16.5173C100.42 19.6954 101.953 21.4458 104.734 21.4458C107.173 21.4458 108.688 20.0244 108.688 17.7464V12.5571C108.688 10.2667 107.173 8.85145 104.734 8.85145Z" fill="#EEFF04"/>
<path d="M132.387 24.5991C130.798 24.5991 129.401 24.0653 128.359 23.0597C127.31 22.0479 126.751 20.6824 126.751 19.1119C126.751 16.0332 129.054 13.8482 132.61 13.5503L137.849 13.1034V11.7564C137.849 9.85081 136.794 8.84525 134.795 8.84525C132.846 8.84525 131.611 9.83219 131.53 11.4399H127.372C127.589 7.88934 130.488 5.69199 134.975 5.69199C139.401 5.69199 141.94 7.92658 141.94 11.8309V24.1646H138.247V21.3155H138.116C137.005 23.4632 134.907 24.5991 132.387 24.5991ZM132.263 16.6725C131.481 16.7532 131.096 17.1939 131.096 18.0319V19.6209C131.096 20.7506 132.195 21.4458 133.97 21.4458C136.254 21.4458 137.849 19.6582 137.849 17.0946V16.1884L132.263 16.6725Z" fill="#EEFF04"/>
<path d="M153.045 24.5991C147.936 24.5991 144.888 21.1044 144.888 15.2573C144.888 9.36044 147.986 5.6982 152.97 5.6982C156.31 5.6982 160.009 7.35552 160.462 11.9861H156.297C156.024 9.87564 154.876 8.85145 152.796 8.85145C151.158 8.85145 149.24 9.8384 149.24 12.6254V17.6719C149.24 19.9313 150.686 21.4458 152.833 21.4458C155.043 21.4458 156.136 20.4651 156.446 18.1684H160.611C160.146 22.1969 157.334 24.5991 153.045 24.5991Z" fill="#EEFF04"/>
<path d="M170.723 24.5991C165.713 24.5991 162.604 20.9617 162.604 15.1145C162.604 9.48459 165.869 5.6982 170.723 5.6982C175.459 5.6982 178.767 9.24251 178.767 14.32V16.418H166.949V17.8146C166.949 19.9499 168.513 21.4458 170.76 21.4458C172.765 21.4458 174.161 20.3161 174.441 18.4912H178.6C177.973 22.3211 175.043 24.5991 170.723 24.5991ZM170.723 8.85145C168.569 8.85145 166.949 10.397 166.949 12.4454V13.2648H174.497V12.4454C174.497 10.397 172.877 8.85145 170.723 8.85145Z" fill="#EEFF04"/>
<path d="M115.714 24.1646V6.1265H119.817V8.21211C119.824 8.19349 120.742 6.20098 122.747 6.1265H125.646V9.31699H119.879V24.1646H115.714Z" fill="#EEFF04"/>
<path d="M14.1896 6.51755V0.676583H7.09482V0.68279L0 7.75899V21.9176H0.00620733L7.09482 29V28.9938H14.1896V23.159H5.85338V6.51755H14.1896Z" fill="#EEFF04"/>
<path d="M24.8226 6.51755V0.676583H31.9112V0.68279L39.006 7.75899V21.9176L31.9112 29V28.9938H24.8226V23.159H33.1588V6.51755H24.8226Z" fill="#EEFF04"/>
<path d="M25.195 19.1306C27.5638 19.1306 29.4842 17.2102 29.4842 14.8414C29.4842 12.4726 27.5638 10.5522 25.195 10.5522C22.8262 10.5522 20.9058 12.4726 20.9058 14.8414C20.9058 17.2102 22.8262 19.1306 25.195 19.1306Z" fill="#EEFF04"/>
<path d="M13.8172 19.1244C16.1861 19.1244 18.1064 17.204 18.1064 14.8352C18.1064 12.4663 16.1861 10.546 13.8172 10.546C11.4484 10.546 9.52804 12.4663 9.52804 14.8352C9.52804 17.204 11.4484 19.1244 13.8172 19.1244Z" fill="#EEFF04"/>
</svg>
