<svg id="Capa_1" data-name="Capa 1" xmlns="http://www.w3.org/2000/svg" viewBox="0 0 419.96 512"><defs><style>.cls-1{fill:#ed6543;}</style></defs><path class="cls-1" d="M185.26,512C109.05,511.56,46,356,46,276.79c0-129.4,97.08-157.73,134.49-157.73,16.86,0,34.86,6.62,50.74,12.48,11.11,4.08,22.59,8.3,29,8.3,3.82,0,12.83-3.59,20.78-6.74,17-6.75,38.07-15.14,62.65-15.14h.15c18.35,0,74,4,107.46,54.27L459.11,184l-11.28,8.51c-16.11,12.16-45.51,34.33-45.51,78.26,0,52,33.29,72.05,49.29,81.67,7.06,4.25,14.37,8.63,14.37,18.21,0,6.25-49.92,140.56-122.42,140.56-17.74,0-30.28-5.33-41.34-10s-20.84-8.86-36.79-8.86c-8.09,0-18.32,3.82-29.14,7.88C221.5,505.73,204.75,512,185.75,512Z" transform="translate(-46.02)"/><path class="cls-1" d="M351.34,0c1.89,68.08-46.79,115.3-95.42,112.34C247.9,58,304.54,0,351.34,0Z" transform="translate(-46.02)"/></svg>