<svg xmlns="http://www.w3.org/2000/svg" viewBox="0 0 68.27 87.43"><defs><style>.cls-1{fill:#aaa9ad;}</style></defs><title>Asset 3</title><g id="Layer_2" data-name="Layer 2"><g id="Layer_1-2" data-name="Layer 1"><path class="cls-1" d="M67,63.16A11.88,11.88,0,0,1,63.49,61a16.18,16.18,0,0,1-5.41-10.1,16.92,16.92,0,0,1,.24-5.76A13.8,13.8,0,0,1,62,38.49c1.18-1.18,2.4-2.32,3.58-3.5a2,2,0,0,0,.24-2.61,24.69,24.69,0,0,0-4.51-4.51,19,19,0,0,0-7.22-3.36A18.42,18.42,0,0,0,48.36,24,41.33,41.33,0,0,0,39,26.28a11.87,11.87,0,0,1-7.29.31,49.78,49.78,0,0,0-8.81-2,18.82,18.82,0,0,0-9,1,18.75,18.75,0,0,0-8.7,6.9,25.79,25.79,0,0,0-3.75,7.6A31.59,31.59,0,0,0,0,48.24a42.24,42.24,0,0,0,1,10.9A48.64,48.64,0,0,0,3.11,66a52.39,52.39,0,0,0,8.37,14.82,19.29,19.29,0,0,0,7,5.65,9.75,9.75,0,0,0,5.59.8,29.06,29.06,0,0,0,5.86-1.77,19.19,19.19,0,0,1,3.71-1.07,12.75,12.75,0,0,1,5.94.62c2,.63,4,1.35,6.07,1.91a10.55,10.55,0,0,0,8.64-1.21,27.57,27.57,0,0,0,8.05-8.26,46.09,46.09,0,0,0,5.79-11.7A2,2,0,0,0,67,63.16Zm-3.23,3.3a44,44,0,0,1-8.74,13.88,9.51,9.51,0,0,1-4.69,2.91,7.83,7.83,0,0,1-4-.17c-2.5-.7-4.9-1.74-7.43-2.29a14.16,14.16,0,0,0-6.28-.14,41.18,41.18,0,0,0-6.7,2.15c-3.57,1.39-6.62.52-9.33-2A32.52,32.52,0,0,1,11,73.33a53.87,53.87,0,0,1-4.69-10A40.26,40.26,0,0,1,4,51.54a33.77,33.77,0,0,1,.59-7.77,21.64,21.64,0,0,1,3-7.78,18.54,18.54,0,0,1,4.3-5,6.09,6.09,0,0,0,1.46-1,12.85,12.85,0,0,1,5.52-1.7,23.93,23.93,0,0,1,7.84.86c2.22.59,4.41,1.22,6.66,1.63a11.35,11.35,0,0,0,4.23-.17c2.4-.49,4.69-1.39,7.08-2a17.27,17.27,0,0,1,9-.31A15.46,15.46,0,0,1,61.23,33c.28.31.21.52-.07.76a31.29,31.29,0,0,0-3.43,3.65A18,18,0,0,0,54.64,44a20,20,0,0,0,5,18.53,17.84,17.84,0,0,0,4,3.23A.55.55,0,0,1,63.8,66.46Z"/><path class="cls-1" d="M34,22.57l1.08-.11a13.6,13.6,0,0,0,6.87-2.18,22,22,0,0,0,4.13-3.86,19.26,19.26,0,0,0,3.5-6,22.11,22.11,0,0,0,.91-5c.1-1,.1-2,.17-3A2.12,2.12,0,0,0,47.94.08a26.89,26.89,0,0,0-5.06,1.7,17.54,17.54,0,0,0-6.46,4.75,22.46,22.46,0,0,0-4.75,13.26v.8A1.87,1.87,0,0,0,34,22.57Zm1.7-4.65a18.94,18.94,0,0,1,2.78-7.64A13.69,13.69,0,0,1,45.9,4.73c.66-.24.69-.21.66.69a14.15,14.15,0,0,1-4.17,9.34A11.15,11.15,0,0,1,38.05,18a12.54,12.54,0,0,1-1.83.45C35.76,18.47,35.63,18.3,35.69,17.92Z"/></g></g></svg>