<svg id="Capa_1" data-name="Capa 1" xmlns="http://www.w3.org/2000/svg" viewBox="0 0 466.3 466.3"><defs><style>.cls-1{fill:#f8f8f8;}.cls-2{fill:#dfdfdf;}.cls-3{fill:#ec6442;}</style></defs><title>apple</title><circle class="cls-1" cx="233.15" cy="233.15" r="231.65"/><path class="cls-2" d="M256,489.17a233.16,233.16,0,0,1-164.87-398A233.15,233.15,0,1,1,420.88,420.88,231.62,231.62,0,0,1,256,489.17Zm0-463.3C129.11,25.87,25.87,129.11,25.87,256S129.11,486.17,256,486.17,486.17,382.92,486.17,256,382.92,25.87,256,25.87Z" transform="translate(-22.87 -22.87)"/><path class="cls-3" d="M216.6,398.66C174.14,398.42,139,311.74,139,267.6c0-72.1,54.09-87.89,74.93-87.89,9.4,0,19.43,3.69,28.28,7,6.18,2.27,12.58,4.62,16.14,4.62,2.13,0,7.15-2,11.58-3.75,9.46-3.76,21.22-8.44,34.91-8.44h.08c10.23,0,41.24,2.24,59.88,30.24l4.37,6.56-6.29,4.74c-9,6.78-25.36,19.14-25.36,43.62,0,29,18.56,40.14,27.47,45.5,3.93,2.37,8,4.81,8,10.14,0,3.49-27.82,78.33-68.21,78.33-9.89,0-16.87-3-23-5.59s-11.61-4.94-20.5-4.94c-4.51,0-10.2,2.13-16.24,4.39-8.24,3.08-17.57,6.57-28.15,6.57Z" transform="translate(-22.87 -22.87)"/><path class="cls-3" d="M309.14,113.37c1.05,37.93-26.07,64.25-53.17,62.6C251.51,145.7,283.06,113.37,309.14,113.37Z" transform="translate(-22.87 -22.87)"/></svg>