<svg width="65" height="76" viewBox="0 0 65 76" fill="none" xmlns="http://www.w3.org/2000/svg">
<path d="M53.936 40.0672C53.8996 33.9745 56.7141 29.3678 62.4279 25.9857C59.2192 21.5217 54.4091 19.0668 48.0584 18.6031C42.0413 18.1335 35.4722 22.0388 33.0641 22.0388C30.5226 22.0388 24.6996 18.7696 20.12 18.7696C10.6697 18.9003 0.625 26.1343 0.625 40.8637C0.664539 45.4563 1.48452 50.0104 3.05126 54.3389C5.22276 60.4316 13.0475 75.375 21.2118 75.1432C25.4578 75.0422 28.4906 72.1712 34.0528 72.1712C39.4391 72.1712 42.2354 75.1432 46.9969 75.1432C55.228 75.0243 62.3066 61.4718 64.375 55.3375C53.3416 50.2256 53.936 40.3822 53.936 40.0672ZM44.3462 12.8076C48.9743 7.42824 48.5436 2.5541 48.4102 0.770874C44.328 1.00269 39.6029 3.49326 36.8855 6.56635C33.9194 9.85343 32.1785 13.9192 32.5485 18.5021C37.0189 18.8349 41.0283 16.6059 44.3462 12.8076Z" fill="#26B3BD"/>
</svg>
