<svg width="24" height="24" viewBox="0 0 24 24" fill="none" xmlns="http://www.w3.org/2000/svg">
<path d="M22.65 10.6688C22.6125 10.275 22.5375 9.825 22.425 9.31875C22.3125 8.8125 22.0875 8.2875 21.825 7.70625C21.5437 7.14375 21.1875 6.54375 20.7187 6C20.5312 5.775 20.325 5.56875 20.1187 5.34375C20.4562 4.05 19.725 2.90625 19.725 2.90625C18.4687 2.83125 17.6812 3.3 17.4 3.50625C17.3625 3.4875 17.2875 3.46875 17.25 3.45C17.0437 3.375 16.8187 3.28125 16.5937 3.20625C16.3687 3.15 16.1437 3.05625 15.9187 3.01875C15.6937 2.9625 15.45 2.90625 15.1875 2.86875C15.15 2.86875 15.1125 2.85 15.0562 2.85C14.5312 1.125 12.9562 0.375 12.9562 0.375C11.1562 1.5375 10.8187 3.075 10.8187 3.075C10.8187 3.075 10.8187 3.1125 10.8 3.15C10.6875 3.16875 10.6125 3.20625 10.5187 3.225C10.3875 3.2625 10.2562 3.3 10.125 3.375L9.73125 3.54375C9.46875 3.675 9.20625 3.7875 8.94375 3.9375C8.7 4.0875 8.45625 4.21875 8.2125 4.3875C8.175 4.36875 8.15625 4.35 8.15625 4.35C5.7375 3.4125 3.6 4.5375 3.6 4.5375C3.4125 7.125 4.575 8.71875 4.8 9.01875C4.74375 9.1875 4.6875 9.3375 4.63125 9.4875C4.44375 10.0687 4.3125 10.6687 4.2375 11.2875C4.21875 11.3625 4.21875 11.475 4.2 11.55C1.96875 12.6562 1.3125 14.925 1.3125 14.925C3.16875 17.0625 5.34375 17.1937 5.34375 17.1937C5.60625 17.6812 5.94375 18.1687 6.3 18.6C6.45 18.7875 6.61875 18.9562 6.76875 19.1437C6.09375 21.075 6.88125 22.7062 6.88125 22.7062C8.9625 22.7812 10.3312 21.8062 10.6125 21.5625C10.8187 21.6187 11.025 21.6938 11.2312 21.75C11.8687 21.9188 12.525 22.0125 13.1625 22.0312H14.0062C14.9812 23.4375 16.7062 23.625 16.7062 23.625C17.925 22.3312 18 21.075 18 20.775V20.6625C18.2437 20.475 18.4875 20.2875 18.75 20.0812C19.2375 19.65 19.65 19.125 20.025 18.6C20.0625 18.5625 20.0812 18.4875 20.1375 18.45C21.525 18.525 22.4812 17.5875 22.4812 17.5875C22.2562 16.1438 21.4312 15.45 21.2625 15.3187L21.2437 15.3L21.225 15.2812L21.2062 15.2625C21.2062 15.1875 21.225 15.0938 21.225 15C21.2437 14.8313 21.2437 14.6812 21.2437 14.5312V13.9125C21.2437 13.875 21.2437 13.8375 21.225 13.7812L21.2062 13.65L21.1875 13.5187C21.1687 13.35 21.1312 13.2 21.1125 13.05C20.9625 12.4312 20.7187 11.8313 20.4187 11.325C20.0812 10.7812 19.6875 10.3313 19.2375 9.91875C18.7875 9.525 18.2812 9.1875 17.7562 8.9625C17.2125 8.71875 16.6875 8.56875 16.125 8.5125C15.8625 8.475 15.5625 8.475 15.3 8.475H14.8687C14.7187 8.49375 14.5875 8.5125 14.4562 8.53125C13.8937 8.64375 13.3875 8.85 12.9375 9.1125C12.4875 9.375 12.0937 9.73125 11.7562 10.125C11.4187 10.5188 11.175 10.9313 11.0062 11.3813C10.8375 11.8125 10.7437 12.2812 10.725 12.7313V13.2188C10.725 13.275 10.725 13.3313 10.7437 13.3875C10.7625 13.6125 10.8 13.8188 10.875 14.025C11.0062 14.4375 11.1937 14.8125 11.4375 15.1312C11.6812 15.45 11.9625 15.7125 12.2625 15.9188C12.5812 16.125 12.8812 16.275 13.2187 16.3688C13.5562 16.4625 13.8562 16.5187 14.1562 16.5H14.5875C14.625 16.5 14.6625 16.4813 14.7 16.4813C14.7375 16.4813 14.7562 16.4625 14.8125 16.4625C14.8687 16.4438 14.9625 16.425 15.0187 16.4062C15.15 16.3687 15.2625 16.2937 15.3937 16.2562C15.525 16.2 15.6187 16.125 15.7125 16.0687C15.7312 16.05 15.7687 16.0312 15.7875 16.0125C15.9 15.9375 15.9187 15.7875 15.825 15.675C15.75 15.6 15.6187 15.5625 15.5062 15.6188C15.4875 15.6375 15.4687 15.6375 15.4312 15.6562C15.3562 15.6938 15.2437 15.7312 15.1687 15.7687C15.0562 15.7875 14.9625 15.825 14.85 15.8438C14.7937 15.8438 14.7375 15.8625 14.6812 15.8625H14.3437H14.2125C14.1937 15.8625 14.1562 15.8625 14.1375 15.8438C13.9125 15.8062 13.6687 15.7313 13.4437 15.6375C13.2187 15.525 12.9937 15.3937 12.8062 15.2062C12.6 15.0187 12.4312 14.8125 12.2812 14.5687C12.1312 14.325 12.0562 14.0437 12.0187 13.7812C12 13.6313 11.9812 13.5 12 13.35V13.2188V13.125C12 13.05 12.0187 12.975 12.0375 12.9C12.15 12.2813 12.45 11.6813 12.9187 11.2313C13.05 11.1 13.1625 11.0063 13.3125 10.9125C13.4625 10.8 13.5938 10.725 13.7437 10.6688C13.8937 10.6125 14.0625 10.5375 14.2125 10.5C14.3812 10.4625 14.55 10.425 14.7 10.425C14.775 10.425 14.8687 10.4062 14.9437 10.4062H15.0937H15.1687C15.3562 10.425 15.5437 10.4438 15.7125 10.4813C16.0687 10.5563 16.4062 10.6875 16.7437 10.875C17.4 11.25 17.9625 11.8125 18.3 12.4875C18.4687 12.825 18.5812 13.1813 18.6562 13.575C18.675 13.6875 18.675 13.7625 18.6937 13.8563V14.3625C18.6937 14.475 18.675 14.5688 18.675 14.6813C18.6562 14.7938 18.6562 14.8875 18.6375 15C18.6187 15.1125 18.6 15.2062 18.5812 15.3187C18.5437 15.525 18.45 15.7125 18.3937 15.9188C18.2437 16.3125 18.0375 16.6875 17.7937 17.0062C17.3062 17.6812 16.6125 18.2437 15.8625 18.6C15.4687 18.7687 15.075 18.9187 14.6625 18.975C14.4562 19.0125 14.25 19.0312 14.0437 19.0312H13.7437H13.725C13.6125 19.0312 13.5 19.0312 13.3875 19.0125C12.9375 18.975 12.5062 18.8813 12.075 18.7687C11.6437 18.6375 11.2312 18.4875 10.8375 18.2812C10.05 17.8687 9.35625 17.2687 8.79375 16.5938C8.53125 16.2375 8.26875 15.8625 8.0625 15.4875C7.85625 15.1125 7.70625 14.6812 7.59375 14.2687C7.4625 13.8562 7.40625 13.425 7.3875 12.9938V12.3375C7.3875 12.1313 7.40625 11.9062 7.44375 11.6812C7.4625 11.4563 7.5 11.25 7.55625 11.025C7.59375 10.8 7.66875 10.5938 7.725 10.3687C7.85625 9.9375 7.9875 9.525 8.175 9.13125C8.55 8.34375 9.01875 7.65 9.58125 7.0875C9.73125 6.9375 9.8625 6.825 10.0312 6.69375C10.0875 6.6375 10.2375 6.50625 10.4062 6.4125C10.575 6.31875 10.7437 6.20625 10.9312 6.13125C11.0062 6.09375 11.1 6.05625 11.1937 6C11.2312 5.98125 11.2687 5.9625 11.3437 5.94375C11.3812 5.925 11.4187 5.90625 11.4937 5.8875C11.6812 5.8125 11.8687 5.7375 12.0562 5.68125C12.0938 5.6625 12.1687 5.6625 12.2062 5.64375C12.2437 5.625 12.3187 5.625 12.3562 5.60625C12.4687 5.5875 12.5437 5.56875 12.6375 5.53125C12.675 5.5125 12.75 5.5125 12.7875 5.49375C12.825 5.49375 12.9 5.475 12.9375 5.475C12.975 5.475 13.05 5.45625 13.0875 5.45625L13.1625 5.4375L13.2375 5.41875C13.275 5.41875 13.35 5.4 13.3875 5.4C13.4437 5.4 13.5 5.38125 13.5562 5.38125C13.5938 5.38125 13.6875 5.3625 13.725 5.3625C13.7625 5.3625 13.7812 5.3625 13.8375 5.34375H13.9687C14.025 5.34375 14.0812 5.34375 14.1375 5.325H14.2125H14.9812C15.3562 5.34375 15.7312 5.38125 16.0687 5.45625C16.7625 5.5875 17.4562 5.8125 18.0562 6.1125C18.6562 6.39375 19.2187 6.76875 19.6687 7.1625C19.6875 7.18125 19.725 7.2 19.7437 7.2375C19.7625 7.25625 19.8 7.275 19.8187 7.3125C19.875 7.35 19.9312 7.425 19.9875 7.4625C20.0437 7.5 20.1 7.575 20.1562 7.6125C20.1937 7.66875 20.2687 7.725 20.3062 7.78125C20.5125 7.9875 20.7 8.2125 20.8687 8.41875C21.2062 8.85 21.4687 9.28125 21.675 9.69375C21.6937 9.7125 21.6937 9.73125 21.7125 9.76875C21.7312 9.7875 21.7312 9.80625 21.75 9.84375C21.7687 9.88125 21.7875 9.95625 21.825 9.99375C21.8437 10.0312 21.8625 10.1062 21.8812 10.1437C21.9 10.1812 21.9187 10.2563 21.9375 10.2938C22.0125 10.4813 22.0875 10.6688 22.1437 10.8563C22.2562 11.1375 22.3125 11.4 22.3687 11.6063C22.3875 11.6813 22.4812 11.7563 22.5562 11.7563C22.6687 11.7563 22.725 11.6813 22.725 11.5688C22.6687 11.25 22.6687 10.9875 22.65 10.6688Z" fill="url(#paint0_linear_88_225)"/>
<defs>
<linearGradient id="paint0_linear_88_225" x1="11.9999" y1="28.8672" x2="11.9999" y2="7.64897" gradientUnits="userSpaceOnUse">
<stop stop-color="#FCEE1F"/>
<stop offset="1" stop-color="#F15B2A"/>
</linearGradient>
</defs>
</svg>
