<svg width="24" height="24" viewBox="0 0 24 24" fill="none" xmlns="http://www.w3.org/2000/svg">
<g clip-path="url(#clip0_224_1382)">
<path d="M24.0099 12.5806C24.0121 11.6029 23.7129 10.6484 23.1533 9.8481C22.5937 9.04775 21.8012 8.44064 20.8843 8.10999C21.0723 7.12489 21.0415 6.11033 20.7942 5.13853C20.5469 4.16673 20.0891 3.26159 19.4535 2.48758C18.8178 1.71356 18.0199 1.0897 17.1166 0.660414C16.2133 0.231127 15.2267 0.00697247 14.2273 0.0039111C13.1532 0.00262286 12.0943 0.257756 11.1379 0.748241C10.1815 1.23873 9.35517 1.95049 8.72704 2.82475C8.19409 2.41167 7.55644 2.15677 6.88643 2.08896C6.21642 2.02115 5.54089 2.14315 4.93648 2.44111C4.33206 2.73907 3.82297 3.20107 3.46697 3.77468C3.11097 4.34829 2.92231 5.01055 2.92239 5.68631C2.92389 6.11698 2.99942 6.54417 3.14565 6.94907C2.22562 7.27936 1.42966 7.88668 0.866543 8.68803C0.303427 9.48939 0.000625163 10.4457 -0.000485216 11.4262C-0.0015956 12.4068 0.29904 13.3638 0.860339 14.1664C1.42164 14.969 2.21622 15.5782 3.1355 15.9106C2.84016 17.431 3.07188 19.007 3.79219 20.3771C4.5125 21.7471 5.67808 22.8287 7.09542 23.4424C8.51276 24.056 10.0966 24.1647 11.584 23.7505C13.0714 23.3363 14.373 22.4241 15.2725 21.1653C15.8987 21.6647 16.6747 21.9374 17.4746 21.9392C18.43 21.9389 19.3461 21.558 20.0217 20.8801C20.6972 20.2021 21.0769 19.2828 21.0772 18.3241C21.0757 17.8934 21.0001 17.4662 20.8539 17.0613C21.7737 16.7283 22.5694 16.1201 23.1338 15.3188C23.6982 14.5175 24.004 13.5618 24.0099 12.5806Z" fill="white"/>
<path d="M9.43754 10.34L14.6942 12.7433L19.9915 8.07927C20.0697 7.69395 20.1072 7.30139 20.1031 6.90817C20.104 5.63872 19.6997 4.40235 18.9495 3.3802C18.1993 2.35806 17.1427 1.60387 15.9343 1.22815C14.726 0.85242 13.4295 0.874902 12.2348 1.2923C11.0401 1.70969 10.01 2.50006 9.29547 3.54761L8.4126 8.14037L9.43754 10.34Z" fill="#FED10A"/>
<path d="M3.99816 15.9207C3.91987 16.3129 3.88246 16.7122 3.88653 17.1122C3.88808 18.3869 4.29648 19.6276 5.05187 20.6525C5.80726 21.6773 6.86992 22.4324 8.08409 22.807C9.29826 23.1816 10.6001 23.1561 11.7988 22.7342C12.9974 22.3123 14.0299 21.5162 14.7449 20.4626L15.6176 15.8902L14.4506 13.6498L9.17364 11.2363L3.99816 15.9207Z" fill="#24BBB1"/>
<path d="M3.96774 6.79593L7.57028 7.65134L8.36182 3.54739C7.87313 3.1719 7.27616 2.9658 6.6607 2.96008C6.04525 2.95437 5.44458 3.14934 4.94905 3.51569C4.45352 3.88203 4.08993 4.39993 3.91296 4.99149C3.73599 5.58305 3.75521 6.21628 3.96774 6.79593Z" fill="#EF5098"/>
<path d="M3.65306 7.66211C2.87363 7.91878 2.19264 8.41156 1.7038 9.07264C1.21497 9.73371 0.942336 10.5306 0.923419 11.3535C0.904502 12.1765 1.14023 12.9852 1.59817 13.6681C2.05611 14.3511 2.71374 14.8749 3.48054 15.1674L8.53424 10.5848L7.61078 8.59899L3.65306 7.66211Z" fill="#17A8E0"/>
<path d="M15.6582 20.4629C16.1472 20.8338 16.7427 21.0361 17.3557 21.0396C17.9687 21.043 18.5663 20.8474 19.0594 20.482C19.5526 20.1166 19.9147 19.601 20.0918 19.012C20.2689 18.4231 20.2515 17.7925 20.0421 17.2144L16.4497 16.3691L15.6582 20.4629Z" fill="#93C83E"/>
<path d="M16.389 15.4213L20.3467 16.348C21.1261 16.0914 21.8071 15.5986 22.296 14.9375C22.7848 14.2764 23.0574 13.4796 23.0764 12.6566C23.0953 11.8336 22.8595 11.025 22.4016 10.342C21.9437 9.659 21.286 9.13523 20.5192 8.84277L15.3438 13.3948L16.389 15.4213Z" fill="#0779A1"/>
</g>
<defs>
<clipPath id="clip0_224_1382">
<rect width="24" height="24" fill="white"/>
</clipPath>
</defs>
</svg>
