<svg width="24" height="24" viewBox="0 0 24 24" fill="none" xmlns="http://www.w3.org/2000/svg">
<g clip-path="url(#clip0_224_654)">
<circle cx="12" cy="12" r="12" fill="white"/>
<path d="M3.45486 6.47026L5.27699 8.2926C7.10706 6.56642 9.53059 5.60989 12.0461 5.62091C14.5617 5.63191 16.9768 6.60963 18.7916 8.35176L20.5492 6.46689C18.2594 4.24284 15.193 2.99916 12.001 3C8.80908 3.00084 5.74323 4.24613 3.45459 6.47137L3.45486 6.47026Z" fill="#00A259"/>
<path fill-rule="evenodd" clip-rule="evenodd" d="M12 19C14.2091 19 16 17.2091 16 15C16 12.7909 14.2091 11 12 11C9.79086 11 8 12.7909 8 15C8 17.2091 9.79086 19 12 19ZM12 21C15.3137 21 18 18.3137 18 15C18 11.6863 15.3137 9 12 9C8.68629 9 6 11.6863 6 15C6 18.3137 8.68629 21 12 21Z" fill="black"/>
</g>
<defs>
<clipPath id="clip0_224_654">
<rect width="24" height="24" fill="white"/>
</clipPath>
</defs>
</svg>
