<svg width="22" height="16" viewBox="0 0 22 16" fill="none" xmlns="http://www.w3.org/2000/svg">
<path d="M7.76186 3.59565V0.373047H3.88093V0.376472L0 4.28058V12.0922H0.00339546L3.88093 15.9998V15.9963H7.76186V12.7772H3.20185V3.59565H7.76186Z" fill="#EEFF04"/>
<path d="M13.5782 3.59565V0.373047H17.4557V0.376472L21.3366 4.28058V12.0922L17.4557 15.9998V15.9963H13.5782V12.7772H18.1382V3.59565H13.5782Z" fill="#EEFF04"/>
<path d="M13.7819 10.5546C15.0777 10.5546 16.1281 9.49506 16.1281 8.18812C16.1281 6.88117 15.0777 5.82168 13.7819 5.82168C12.4861 5.82168 11.4357 6.88117 11.4357 8.18812C11.4357 9.49506 12.4861 10.5546 13.7819 10.5546Z" fill="#EEFF04"/>
<path d="M7.55813 10.5511C8.85391 10.5511 9.90434 9.49164 9.90434 8.18469C9.90434 6.87774 8.85391 5.81825 7.55813 5.81825C6.26235 5.81825 5.21192 6.87774 5.21192 8.18469C5.21192 9.49164 6.26235 10.5511 7.55813 10.5511Z" fill="#EEFF04"/>
</svg>
