<svg width="24" height="24" viewBox="0 0 24 24" fill="none" xmlns="http://www.w3.org/2000/svg">
<path fill-rule="evenodd" clip-rule="evenodd" d="M12.0978 0C17.7837 0 22.5624 3.89756 23.8478 9.14426C23.0161 7.97498 21.64 7.21048 20.0824 7.21048C17.5419 7.21048 15.4701 9.2492 15.4701 11.7826C15.4701 14.316 17.5267 16.3547 20.0824 16.3547C21.7307 16.3547 23.1673 15.5002 23.9839 14.2261C22.9404 19.7876 18.0106 24 12.0978 24C5.41377 24 0 18.6334 0 12.0074C0 5.38163 5.4289 0 12.0978 0Z" fill="#2FBF71"/>
<path fill-rule="evenodd" clip-rule="evenodd" d="M12.4612 23.985C6.57869 22.9955 2.0874 18.0037 2.0874 11.9924C2.0874 5.98125 6.56357 1.00437 12.4612 0C17.996 0.164897 22.5932 4.00249 23.8635 9.14426C23.0317 7.97498 21.6556 7.21048 20.098 7.21048C17.5575 7.21048 15.4857 9.2492 15.4857 11.7826C15.4857 14.316 17.5423 16.3547 20.098 16.3547C21.7464 16.3547 23.1829 15.5002 23.9996 14.2261C22.9713 19.6677 18.2229 23.8201 12.4612 23.985Z" fill="#2FBE70"/>
<path fill-rule="evenodd" clip-rule="evenodd" d="M14.4417 23.7588C7.81814 23.669 2.47998 18.4372 2.47998 11.9912C2.47998 5.54529 7.81814 0.313576 14.4417 0.223633C19.0691 1.12307 22.7438 4.63086 23.8478 9.14307C23.016 7.97378 21.6399 7.20922 20.0823 7.20922C17.5418 7.20922 15.47 9.248 15.47 11.7814C15.47 14.3148 17.5267 16.3535 20.0823 16.3535C21.7307 16.3535 23.1672 15.499 23.9839 14.2249C23.0916 19.0218 19.2809 22.8295 14.4417 23.7588Z" fill="#33C172"/>
<path fill-rule="evenodd" clip-rule="evenodd" d="M14.6231 0.629883C15.1826 0.629883 15.7422 0.674859 16.2865 0.74981C20.0217 2.11395 22.895 5.26198 23.8477 9.15955C23.016 7.99026 21.6398 7.22577 20.0822 7.22577C17.5416 7.22577 15.47 9.26448 15.47 11.7979C15.47 14.3313 17.5266 16.37 20.0822 16.37C21.7305 16.37 23.1672 15.5155 23.9838 14.2414C23.1974 18.4237 20.2183 21.8266 16.2865 23.2807C15.7422 23.3557 15.1826 23.4006 14.6231 23.4006C8.15072 23.4006 2.90332 18.3038 2.90332 12.0377C2.90332 5.77166 8.15072 0.629883 14.6231 0.629883Z" fill="#37C573"/>
<path fill-rule="evenodd" clip-rule="evenodd" d="M14.6239 1.03418C15.8035 1.03418 16.9376 1.21407 17.9962 1.52887C20.8846 3.13287 23.047 5.87615 23.8485 9.15906C23.0168 7.98983 21.6406 7.22534 20.0831 7.22534C17.5425 7.22534 15.4708 9.26399 15.4708 11.7974C15.4708 14.3308 17.5274 16.3695 20.0831 16.3695C21.7314 16.3695 23.168 15.5151 23.9846 14.2409C23.3192 17.7937 21.066 20.7918 17.9962 22.5007C16.9225 22.8305 15.7883 22.9954 14.6239 22.9954C8.36331 22.9954 3.29736 18.0785 3.29736 12.0223C3.29736 5.96611 8.36331 1.03418 14.6239 1.03418Z" fill="#3BC875"/>
<path fill-rule="evenodd" clip-rule="evenodd" d="M14.6244 1.42383C16.4238 1.42383 18.1176 1.84357 19.6147 2.5931C21.6864 4.22707 23.2138 6.52067 23.8641 9.144C23.0323 7.97471 21.6562 7.21021 20.0986 7.21021C17.558 7.21021 15.4863 9.24893 15.4863 11.7823C15.4863 14.3157 17.5429 16.3545 20.0986 16.3545C21.7469 16.3545 23.1835 15.5 24.0002 14.2258C23.4557 17.119 21.8528 19.6524 19.6147 21.4063C18.1176 22.1558 16.4238 22.5756 14.6244 22.5756C8.59052 22.5756 3.70605 17.8386 3.70605 12.0072C3.70605 6.17584 8.59052 1.42383 14.6244 1.42383Z" fill="#3FCB77"/>
<path fill-rule="evenodd" clip-rule="evenodd" d="M14.6233 1.82812C17.0731 1.82812 19.3263 2.63761 21.1107 3.98677C22.4112 5.42586 23.379 7.19476 23.863 9.14353C23.0313 7.97424 21.6551 7.20975 20.0975 7.20975C17.5569 7.20975 15.4853 9.24846 15.4853 11.7818C15.4853 14.3153 17.5418 16.354 20.0975 16.354C21.7458 16.354 23.1825 15.4996 23.9991 14.2254C23.5908 16.429 22.5624 18.4077 21.1107 20.0117C19.3263 21.3759 17.0731 22.1704 14.6233 22.1704C8.81633 22.1704 4.11328 17.6132 4.11328 11.9918C4.11328 6.3703 8.81633 1.82812 14.6233 1.82812Z" fill="#43CE78"/>
<path fill-rule="evenodd" clip-rule="evenodd" d="M14.6241 2.23242C17.8149 2.23242 20.6579 3.65652 22.5179 5.89013C23.1228 6.89453 23.5765 7.9888 23.8638 9.15809C23.0321 7.9888 21.656 7.22431 20.0983 7.22431C17.5578 7.22431 15.4861 9.26302 15.4861 11.7964C15.4861 14.3299 17.5427 16.3686 20.0983 16.3686C21.7467 16.3686 23.1833 15.5141 23.9999 14.2399C23.7428 15.634 23.2287 16.9532 22.5179 18.1225C20.6579 20.3561 17.8149 21.7801 14.6241 21.7801C9.04401 21.7801 4.50732 17.4029 4.50732 12.0063C4.50732 6.60971 9.04401 2.23242 14.6241 2.23242Z" fill="#48D27A"/>
<path fill-rule="evenodd" clip-rule="evenodd" d="M14.623 2.62207C18.8724 2.62207 22.4866 5.26042 23.8022 8.93311C23.8174 9.00812 23.8325 9.06802 23.8628 9.14303C23.031 7.97368 21.6549 7.20919 20.0973 7.20919C17.5568 7.20919 15.485 9.2479 15.485 11.7813C15.485 14.3147 17.5416 16.3535 20.0973 16.3535C21.7456 16.3535 23.1823 15.499 23.9989 14.2248C23.9384 14.5096 23.8779 14.7944 23.8022 15.0642C22.4866 18.737 18.8724 21.3753 14.623 21.3753C9.25467 21.3753 4.91455 17.178 4.91455 12.0062C4.91455 6.83443 9.25467 2.62207 14.623 2.62207Z" fill="#4CD57C"/>
<path fill-rule="evenodd" clip-rule="evenodd" d="M14.6224 3.02734C18.4181 3.02734 21.6694 5.21597 23.1211 8.34897C22.3045 7.64444 21.246 7.22472 20.0967 7.22472C17.5562 7.22472 15.4844 9.26343 15.4844 11.7968C15.4844 14.3302 17.5411 16.369 20.0967 16.369C21.3972 16.369 22.5767 15.8293 23.4085 14.9748C22.1382 18.4826 18.6903 20.9861 14.6224 20.9861C9.48086 20.9861 5.30713 16.9686 5.30713 12.0067C5.30713 7.04484 9.48086 3.02734 14.6224 3.02734Z" fill="#50D87D"/>
<path fill-rule="evenodd" clip-rule="evenodd" d="M14.6229 3.41895C17.9648 3.41895 20.8834 5.20282 22.4108 7.82617C21.7303 7.43643 20.9439 7.21157 20.0971 7.21157C17.5565 7.21157 15.4848 9.25029 15.4848 11.7837C15.4848 14.3171 17.5414 16.3558 20.0971 16.3558C21.08 16.3558 21.9873 16.056 22.7435 15.5314C21.3522 18.5145 18.237 20.5832 14.6229 20.5832C9.70809 20.5832 5.71582 16.7456 5.71582 12.0085C5.71582 7.27153 9.70809 3.41895 14.6229 3.41895Z" fill="#54DB7F"/>
<path fill-rule="evenodd" clip-rule="evenodd" d="M14.6247 3.82324C17.6038 3.82324 20.2199 5.29232 21.7321 7.51092C21.218 7.31605 20.6736 7.21112 20.0989 7.21112C17.5584 7.21112 15.4866 9.24983 15.4866 11.7833C15.4866 14.3167 17.5432 16.3554 20.0989 16.3554C20.8097 16.3554 21.4902 16.1905 22.0951 15.9057C20.6584 18.4541 17.8457 20.178 14.6247 20.178C9.92168 20.178 6.12598 16.5203 6.12598 12.0081C6.12598 7.48094 9.92168 3.82324 14.6247 3.82324Z" fill="#58DF80"/>
<path fill-rule="evenodd" clip-rule="evenodd" d="M14.6241 4.22754C17.2706 4.22754 19.6295 5.44177 21.0964 7.33057C20.7789 7.25562 20.4462 7.22564 20.0984 7.22564C17.5579 7.22564 15.4861 9.26436 15.4861 11.7978C15.4861 14.3312 17.5427 16.37 20.0984 16.37C20.5823 16.37 21.036 16.295 21.4745 16.16C20.0379 18.3487 17.5124 19.7878 14.6241 19.7878C10.148 19.7878 6.51855 16.3099 6.51855 12.0076C6.51855 7.70539 10.148 4.22754 14.6241 4.22754Z" fill="#5CE281"/>
<path fill-rule="evenodd" clip-rule="evenodd" d="M14.6245 4.61719C16.9835 4.61719 19.0856 5.63654 20.507 7.22554C20.3709 7.21055 20.2348 7.21055 20.0987 7.21055C17.5582 7.21055 15.4865 9.24926 15.4865 11.7826C15.4865 14.3161 17.5431 16.3548 20.0987 16.3548C20.3709 16.3548 20.628 16.3248 20.8851 16.2949C19.4939 18.1687 17.2104 19.3829 14.6245 19.3829C10.3751 19.3829 6.92725 16.085 6.92725 12.0076C6.92725 7.93007 10.3751 4.61719 14.6245 4.61719Z" fill="#60E684"/>
</svg>
