<svg width="24" height="24" viewBox="0 0 24 24" fill="none" xmlns="http://www.w3.org/2000/svg">
<rect x="4.31738" y="3.45508" width="14.976" height="16.416" fill="#040814"/>
<path d="M20.1 0H3.9C2.86566 0 1.87368 0.410892 1.14228 1.14228C0.410892 1.87368 0 2.86566 0 3.9V20.1C0 20.6122 0.100876 21.1193 0.29687 21.5925C0.492863 22.0656 0.780135 22.4956 1.14228 22.8577C1.50443 23.2199 1.93437 23.5071 2.40753 23.7031C2.8807 23.8991 3.38784 24 3.9 24H20.1C20.6122 24 21.1193 23.8991 21.5925 23.7031C22.0656 23.5071 22.4956 23.2199 22.8577 22.8577C23.2199 22.4956 23.5071 22.0656 23.7031 21.5925C23.8991 21.1193 24 20.6122 24 20.1V3.9C24 3.38784 23.8991 2.8807 23.7031 2.40753C23.5071 1.93437 23.2199 1.50443 22.8577 1.14228C22.4956 0.780135 22.0656 0.492863 21.5925 0.29687C21.1193 0.100876 20.6122 0 20.1 0ZM17.76 13.26C17.76 13.32 17.76 13.38 17.64 13.44L6.42 19.08C6.36 19.14 6.24 19.02 6.24 18.96V16.08C6.24 16.02 6.24 15.96 6.3 15.96L14.46 11.88L6.3 7.74C6.24 7.74 6.24 7.68 6.24 7.62V4.74C6.24 4.68 6.36 4.56 6.42 4.62L17.64 10.26C17.6773 10.2879 17.7075 10.3242 17.7283 10.3658C17.7492 10.4075 17.76 10.4534 17.76 10.5V13.26Z" fill="white"/>
</svg>
