<svg width="24" height="24" viewBox="0 0 24 24" fill="none" xmlns="http://www.w3.org/2000/svg">
<path d="M16.6708 2.61719L4.18478 4.05644L3.89453 7.31144C3.89453 7.31144 4.95578 19.5064 4.94078 19.4629C4.92578 19.4194 6.43328 20.4289 6.43328 20.4289C6.43328 20.4289 7.01078 22.4847 9.09353 21.9334C11.1763 21.3814 10.0175 18.8674 9.85103 18.5412C9.68453 18.2149 10.6385 19.4337 10.6385 19.4337L11.7928 19.2957L11.9743 20.8122L21.1558 19.1577L20.609 12.5404L16.6708 2.61719Z" fill="white"/>
<path fill-rule="evenodd" clip-rule="evenodd" d="M18.7839 16.3821L17.0289 15.2241L15.5642 17.6698L13.8617 17.1718L12.3617 19.4608L12.4389 20.1808L20.5914 18.6786L20.1182 13.5853L18.7839 16.3821ZM11.1812 14.1853L12.4892 14.0053C12.7007 14.1006 12.8477 14.1373 13.1019 14.2018C13.4972 14.3046 13.9547 14.4036 14.6319 14.0623C14.7894 13.9836 15.1179 13.6836 15.2507 13.5126L20.6102 12.5398L21.1569 19.1571L11.9754 20.8116L11.1812 14.1853ZM21.1359 11.8018L20.6072 11.9023L19.5909 1.40234L2.27344 3.41009L4.40719 20.7223L6.43444 20.4283C6.27244 20.1973 6.02044 19.9176 5.58994 19.5598C4.99294 19.0633 5.20444 18.2211 5.55619 17.6893C6.02194 16.7908 8.42269 15.6486 8.28619 14.2116C8.23819 13.6896 8.15494 13.0093 7.66969 12.5436C7.65169 12.7371 7.68469 12.9231 7.68469 12.9231C7.68469 12.9231 7.48519 12.6696 7.38619 12.3231C7.28794 12.1903 7.20994 12.1476 7.10569 11.9706C7.03069 12.1753 7.04044 12.4131 7.04044 12.4131C7.04044 12.4131 6.87769 12.0283 6.85144 11.7036C6.75469 11.8491 6.73069 12.1258 6.73069 12.1258C6.73069 12.1258 6.51919 11.5183 6.56719 11.1921C6.47044 10.9078 6.18469 10.3438 6.26569 9.06134C6.79369 9.43184 7.95694 9.34334 8.41069 8.67584C8.56069 8.45459 8.66419 7.85009 8.33569 6.65984C8.12419 5.89634 7.60144 4.76009 7.39819 4.32884L7.37344 4.34609C7.48069 4.69409 7.70194 5.42234 7.78744 5.77484C8.04469 6.84584 8.11369 7.21859 7.99294 7.71284C7.89019 8.14184 7.64344 8.42234 7.01869 8.73659C6.39469 9.05159 5.56594 8.28509 5.51344 8.24309C4.90594 7.75934 4.43719 6.97109 4.38469 6.58784C4.32994 6.16784 4.62619 5.91659 4.77544 5.57384C4.56169 5.63459 4.32394 5.74334 4.32394 5.74334C4.32394 5.74334 4.60819 5.44859 4.95844 5.19434C5.09209 5.10783 5.2201 5.01288 5.34169 4.91009C5.12044 4.90634 4.94044 4.91309 4.94044 4.91309C4.94044 4.91309 5.31019 4.71359 5.69269 4.56809C5.41294 4.55534 5.14519 4.56584 5.14519 4.56584C5.14519 4.56584 5.96869 4.19759 6.61969 3.92684C7.06744 3.74309 7.50469 3.79784 7.74994 4.15259C8.07244 4.61759 8.41144 4.87109 9.12994 5.02784C9.57019 4.83284 9.70444 4.73159 10.2579 4.58084C10.7454 4.04459 11.1279 3.97559 11.1279 3.97559C11.1279 3.97559 10.9389 4.14959 10.8879 4.42334C11.1639 4.20584 11.4677 4.02359 11.4677 4.02359C11.4677 4.02359 11.3499 4.16834 11.2404 4.39859L11.2659 4.43609C11.5884 4.24259 11.9679 4.09109 11.9679 4.09109C11.9679 4.09109 11.8592 4.22759 11.7324 4.40459C11.9754 4.40309 12.4689 4.41509 12.6602 4.43684C13.7904 4.46159 14.0252 3.22934 14.4587 3.07559C15.0017 2.88134 15.2439 2.76434 16.1687 3.67334C16.9637 4.45334 17.5839 5.84984 17.2757 6.16334C17.0177 6.42284 16.5084 6.06134 15.9437 5.35784C15.6217 4.96025 15.405 4.48798 15.3137 3.98459C15.2244 3.51209 14.8772 3.23759 14.8772 3.23759C14.8772 3.23759 15.0789 3.68534 15.0789 4.08134C15.0789 4.29734 15.1059 5.10509 15.4524 5.55884C15.4179 5.62484 15.4022 5.88659 15.3639 5.93684C14.9612 5.44934 14.0957 5.10059 13.9539 4.99784C14.4324 5.38934 15.5304 6.28859 15.9519 7.15034C16.3509 7.96559 16.1162 8.71259 16.3179 8.90609C16.3749 8.96159 17.1759 9.95909 17.3297 10.4601C17.5982 11.3331 17.3454 12.2511 16.9937 12.8203L16.0119 12.9733C15.8687 12.9336 15.7719 12.9133 15.6429 12.8383C15.7142 12.7131 15.8552 12.3996 15.8567 12.3358L15.8012 12.2383C15.4952 12.6711 14.9837 13.0911 14.5584 13.3333C14.0019 13.6483 13.3599 13.5996 12.9429 13.4698C11.7579 13.1046 10.6367 12.3036 10.3659 12.0928C10.3659 12.0928 10.3584 12.2616 10.4087 12.2991C10.7079 12.6366 11.3927 13.2456 12.0542 13.6708L10.6434 13.8261L11.3109 19.0191C11.0147 19.0611 10.9689 19.0821 10.6449 19.1278C10.3599 18.1206 9.81394 17.4628 9.21769 17.0788C8.69119 16.7413 7.96519 16.6648 7.27144 16.8021L7.22644 16.8546C7.80132 16.7916 8.38029 16.9294 8.86519 17.2446C9.44044 17.6076 9.90319 18.5466 10.0742 19.1121C10.2917 19.8343 10.4432 20.6068 9.85519 21.4258C9.43744 22.0078 8.21719 22.3296 7.23094 21.6336C7.49419 22.0573 7.85044 22.4038 8.32969 22.4691C9.04069 22.5651 9.71644 22.4421 10.1814 21.9643C10.5782 21.5563 10.7889 20.7036 10.7334 19.8043L11.3612 19.7143L11.5877 21.3268L21.9842 20.0743L21.1359 11.8018ZM14.8112 7.42184C14.7812 7.48784 14.7362 7.53134 14.8044 7.74659L14.8089 7.75934L14.8194 7.78709L14.8487 7.85159C14.9717 8.10359 15.1074 8.34209 15.3339 8.46359C15.3924 8.45384 15.4532 8.44709 15.5154 8.44334C15.7284 8.43434 15.8627 8.46809 15.9482 8.51384C15.9557 8.47184 15.9572 8.40884 15.9527 8.31809C15.9362 7.99859 16.0157 7.45559 15.4014 7.16909C15.1697 7.06109 14.8449 7.09409 14.7362 7.22909C14.7557 7.23134 14.7737 7.23509 14.7872 7.24034C14.9514 7.29734 14.8397 7.35359 14.8112 7.42184ZM16.5324 10.4031C16.4514 10.3588 16.0749 10.3761 15.8109 10.4083C15.3069 10.4676 14.7624 10.6423 14.6432 10.7353C14.4257 10.9026 14.5247 11.1951 14.6852 11.3151C15.1344 11.6503 15.5282 11.8753 15.9437 11.8206C16.1987 11.7876 16.4237 11.3833 16.5827 11.0166C16.6922 10.7646 16.6922 10.4916 16.5324 10.4031ZM12.0699 7.81709C12.2117 7.68209 11.3612 7.50509 10.7019 7.95509C10.2144 8.28659 10.1994 8.99759 10.6652 9.40184C10.7117 9.44159 10.7507 9.46934 10.7867 9.49259C11.1748 9.30981 11.5886 9.18763 12.0137 9.13034C12.1119 9.02084 12.2267 8.82734 12.1982 8.47559C12.1592 7.99934 11.7992 8.07509 12.0699 7.81709Z" fill="#632CA6"/>
</svg>
