<svg width="23" height="14" viewBox="0 0 23 14" fill="none" xmlns="http://www.w3.org/2000/svg">
<path fill-rule="evenodd" clip-rule="evenodd" d="M12.9297 13C12.9297 12.4477 12.482 12 11.9297 12L3.92969 12C3.3774 12 2.92969 12.4477 2.92969 13C2.92969 13.5523 3.3774 14 3.92969 14L11.9297 14C12.482 14 12.9297 13.5523 12.9297 13Z" fill="#EEFF04"/>
<path fill-rule="evenodd" clip-rule="evenodd" d="M22.4414 7C22.4414 7.55228 21.9937 8 21.4414 8L1.1123 8C0.56002 8 0.112305 7.55228 0.112305 7C0.112305 6.44771 0.560021 6 1.1123 6L21.4414 6C21.9937 6 22.4414 6.44772 22.4414 7Z" fill="#EEFF04"/>
<path fill-rule="evenodd" clip-rule="evenodd" d="M20.9883 1C20.9883 1.55228 20.5406 2 19.9883 2L13.3354 2C12.7832 2 12.3354 1.55228 12.3354 1C12.3354 0.447715 12.7832 0 13.3354 0L19.9883 0C20.5406 0 20.9883 0.447715 20.9883 1Z" fill="#EEFF04"/>
</svg>
