<svg id="Layer_1" data-name="Layer 1" xmlns="http://www.w3.org/2000/svg" viewBox="0 0 466.3 466.3"><defs><style>.cls-1{fill:#f7f7f8;}.cls-2{fill:#dfdfdf;}.cls-3{fill:#d06546;}</style></defs><title>React Native</title><circle class="cls-1" cx="233.15" cy="233.15" r="231.65"/><path class="cls-2" d="M306,629.17a233.16,233.16,0,1,1,164.86-68.29A231.63,231.63,0,0,1,306,629.17Zm0-463.3C179.11,165.87,75.87,269.11,75.87,396S179.11,626.17,306,626.17,536.17,522.92,536.17,396,432.92,165.87,306,165.87Z" transform="translate(-72.87 -162.87)"/><path class="cls-3" d="M211.45,447.55c-6.68-2.43-13.35-4.62-19.83-7.29-12.45-5.13-24.22-11.48-33.67-21.36-7.44-7.77-12.24-16.71-11.5-27.92.56-8.46,4.35-15.47,9.8-21.65,9.64-10.93,22.09-17.68,35.29-23.19,5.3-2.21,10.77-4.06,16.26-5.81,2.3-.73,2.79-1.69,2.21-4-3.66-14.52-5.52-29.24-4.57-44.23.56-8.71,2.36-17.12,6.69-24.84,7.54-13.46,21.25-19.31,37.23-15.89,14.95,3.2,27.52,11,39.28,20.32,5.8,4.57,11.24,9.59,16.92,14.48,5.71-4.91,11.38-10.13,17.4-14.9,10.36-8.2,21.43-15.24,34.3-19,24.59-7.14,43.49,4.86,47.83,30.23,3.05,17.76.84,35.17-3.06,52.51-.25,1.12-.52,2.24-.75,3.37a.81.81,0,0,0,.08.45c8.13,3.18,16.29,6,24.14,9.53,12.51,5.64,24.17,12.68,32.58,23.95,10.13,13.58,10,28.29-.15,41.86-7.11,9.48-16.58,16.12-27.09,21.08-9,4.27-18.54,7.53-27.85,11.22-1.05.42-2.15.73-2.51.85,1.92,12.37,4.14,24.38,5.56,36.48a76.17,76.17,0,0,1-3.17,33.53c-6.41,19-22.12,27.67-41.67,23.17-15-3.45-27.56-11.55-39.36-21-5.5-4.38-10.65-9.19-16-13.83C300,510.8,294.16,516.07,288,520.9,277.74,529,266.74,536,254,539.57c-24.11,6.74-41.81-4-47.15-28.53-3.13-14.37-2.05-28.71.41-43C208.38,461.23,210,454.51,211.45,447.55Zm94.48-107.14c-8.44.41-17,.74-25.5,1.35a5.84,5.84,0,0,0-3.78,2.29,350.79,350.79,0,0,0-29.06,49.89,5.52,5.52,0,0,0,0,4.35c7,12.74,14.3,25.29,21.13,38.1,3.16,5.94,7.1,8.92,14.2,8.7,17.53-.54,35.09-.37,52.63-.63a4.19,4.19,0,0,0,2.83-2q12.86-22.12,25.44-44.39a5.41,5.41,0,0,0,.1-4.37,361.43,361.43,0,0,0-29.1-49.86,5.33,5.33,0,0,0-3.54-2.11C322.89,341.15,314.46,340.82,305.93,340.41Zm80.29,111.13a15.85,15.85,0,0,0-2.31,0c-11.7,2-23.38,4.06-35.11,5.83a7.54,7.54,0,0,0-5.49,3.39q-8,10.88-16.4,21.47c-3.56,4.5-7.43,8.75-11.4,13.39,5.82,5,11.25,10,17.08,14.54,9.32,7.25,19.22,13.59,30.89,16.53,13.34,3.35,22.31-1.67,26.42-14.8.27-.87.52-1.77.71-2.66C394.82,489.56,390.89,470.55,386.22,451.54Zm-91,44.08c-9.53-12.32-18.68-24.21-27.93-36a5.68,5.68,0,0,0-3.27-1.92c-7.73-1.27-15.51-2.26-23.25-3.53-5-.81-9.89-1.94-15-2.95a12.55,12.55,0,0,0-.8,2.15c-1.91,11.35-4.3,22.66-5.52,34.08-1,9.54-.13,19.17,3.83,28.18,3.6,8.2,9.38,11.91,18.21,11.55a33,33,0,0,0,8.14-1.31C268,520.26,282,508.14,295.21,495.62Zm.12-199.33c-8.68-8.64-18-16.78-28.9-22.77a90.91,90.91,0,0,0-19.33-8.09c-12.17-3.37-21,1.88-25.08,13.85-.29.87-.52,1.76-.76,2.65-2.94,11-2.45,22.2-.94,33.34.92,6.81,2.4,13.55,3.64,20.39,2.46-.54,4.35-1,6.27-1.35,12.06-1.91,24.13-3.75,36.17-5.71,1.62-.27,3.72-.6,4.62-1.7C279.17,316.89,287.11,306.7,295.33,296.29ZM387,335.24a8.43,8.43,0,0,0,.71-1.69c1.42-8.29,3.29-16.53,4.07-24.88.87-9.42.87-18.93-1.9-28.18-4-13.18-12.87-18.47-26.22-15-19.36,5.07-33.74,17.89-47.74,31.05a4.38,4.38,0,0,0,.34.95c7.93,9.77,15.84,19.55,23.85,29.25a4.89,4.89,0,0,0,2.89,1.4c8,1.17,16,2.1,24,3.36C373.61,332.58,380.23,334,387,335.24Zm8.77,98.37c12.13-2.27,32.26-11.4,42.36-19.55a53.32,53.32,0,0,0,9.38-9.61c5.39-7.26,5.36-15.13.07-22.46a46,46,0,0,0-8.26-8.8C427,363.26,412.56,357.6,397.43,353c-.47,1.25-.86,2.3-1.25,3.36-3.93,10.45-7.34,21.13-12,31.25-2.81,6.11-3.44,11.24.15,17a46.13,46.13,0,0,1,3.41,7.92C390.43,419.49,393,426.49,395.73,433.61Zm-180.28,0a10.57,10.57,0,0,0,.83-1.41c4.56-11.56,9.16-23.1,13.58-34.72a6.35,6.35,0,0,0-.23-4.18c-3.09-7.82-6.46-15.52-9.49-23.36-2.15-5.54-3.93-11.24-6-17.31-7.68,3-15.19,5.64-22.41,8.9-9.39,4.24-18.21,9.5-25.13,17.4-8.05,9.2-8.13,19.09-.08,28.31a49.69,49.69,0,0,0,7,6.64C186,423.53,200.27,429.14,215.45,433.65Zm68.83,25.85c7.25,8.8,14.1,17.13,21.32,25.91l21.3-25.91ZM383.73,349l-31.86-5.66,21,35.85C376.54,368.85,380,359.21,383.73,349ZM238.49,379.09c7.08-12.13,13.71-23.49,20.85-35.74l-31.71,5.81Zm143.77,58.55-9.41-24.92L356,442.39ZM238.77,412.69c-3.16,8.43-6.17,16.46-9.33,24.87l26.19,4.81C249.82,432.13,244.44,422.65,238.77,412.69Zm50.39-86.2h33.28l-16.66-19.77C300.14,313.42,294.85,319.71,289.16,326.49Z" transform="translate(-72.87 -162.87)"/><path class="cls-3" d="M306,430.67a34.67,34.67,0,1,1,34.63-34.79A34.6,34.6,0,0,1,306,430.67Zm-.06-13.87a20.79,20.79,0,1,0-20.77-20.73A21,21,0,0,0,305.93,416.8Z" transform="translate(-72.87 -162.87)"/></svg>