<svg width="83" height="73" viewBox="0 0 83 73" fill="none" xmlns="http://www.w3.org/2000/svg">
<path d="M82.2226 36.2812C82.2226 30.8972 75.4848 25.7952 65.1429 22.63C67.531 12.0938 66.4717 3.71377 61.7959 1.03116C60.6672 0.386605 59.385 0.0595642 58.0854 0.0847236V3.79525C58.7388 3.77713 59.3859 3.92598 59.9657 4.22773C62.2159 5.51889 63.1936 10.4391 62.429 16.7633C62.2472 18.3177 61.9526 19.9599 61.5891 21.6334C58.1336 20.8003 54.6263 20.1994 51.0905 19.8345C48.9769 16.924 46.6737 14.156 44.196 11.5485C49.5925 6.53428 54.6632 3.77645 58.1105 3.77645V0.0847236C53.5475 0.0847236 47.5868 3.33144 41.551 8.96618C35.5214 3.36278 29.5607 0.153669 25.004 0.153669V3.8454C28.4325 3.8454 33.5407 6.57815 38.9185 11.5673C36.4509 14.1618 34.166 16.9241 32.0803 19.8345C28.5286 20.1971 25.0061 20.8045 21.5379 21.6522C21.1619 19.9975 20.8798 18.3929 20.6792 16.8511C19.902 10.5206 20.861 5.60038 23.0986 4.31548C23.6769 4.01021 24.3256 3.86317 24.9789 3.88927V0.166205C23.6653 0.136146 22.3673 0.456318 21.2183 1.09384C16.6177 3.77645 15.5585 12.1439 17.9653 22.6488C7.65477 25.8265 0.948242 30.916 0.948242 36.2812C0.948242 41.6464 7.69238 46.7672 18.028 49.9324C15.6399 60.4686 16.7055 68.8549 21.375 71.5375C22.5133 72.1733 23.8008 72.4935 25.1043 72.4651C29.661 72.4651 35.6216 69.2184 41.6513 63.5837C47.6809 69.1871 53.6478 72.3962 58.2045 72.3962C59.5185 72.4296 60.8174 72.1092 61.9652 71.4685C66.6221 68.7859 67.6626 60.4184 65.262 49.9199C75.5349 46.7547 82.2226 41.6527 82.2226 36.2812ZM60.6552 25.2311C60.0284 27.3684 59.2825 29.5747 58.4176 31.7747C57.7407 30.4521 57.0261 29.1234 56.2489 27.8009C55.4717 26.4784 54.6757 25.1559 53.8609 23.9023C56.2176 24.2658 58.4824 24.7088 60.6552 25.2311ZM53.0649 42.8749C51.7737 45.1125 50.4512 47.2624 49.0723 49.2054C46.6091 49.4185 44.102 49.5376 41.5886 49.5376C39.0752 49.5376 36.5743 49.4185 34.1299 49.2242C32.7573 47.2498 31.416 45.1438 30.1248 42.925C28.8336 40.7062 27.718 38.5376 26.6775 36.3313C27.7054 34.1125 28.865 31.8937 30.106 29.7251C31.347 27.5564 32.7259 25.3376 34.0986 23.3946C36.5681 23.1815 39.0689 23.0624 41.6199 23.0624C44.1709 23.0624 46.6341 23.1815 49.0723 23.3758C50.4512 25.3502 51.7925 27.4561 53.0837 29.6749C54.3749 31.8937 55.4843 34.0624 56.531 36.2687C55.478 38.4874 54.3122 40.7062 53.0649 42.8749ZM58.4176 40.725C59.3139 42.9438 60.0723 45.1626 60.7053 47.3188C58.5367 47.8453 56.2489 48.2965 53.8797 48.6413C54.6883 47.3877 55.5031 46.0589 56.2677 44.7176C57.0324 43.3763 57.7407 42.0789 58.4176 40.725ZM41.6199 58.3751C39.9946 56.6876 38.4569 54.9178 37.0131 53.0726C38.5048 53.1415 40.0279 53.1917 41.5698 53.1917C43.1116 53.1917 44.6661 53.1541 46.1766 53.0726C44.7531 54.9199 43.232 56.6899 41.6199 58.3751ZM29.2912 48.6413C26.9408 48.2965 24.6718 47.8641 22.5032 47.3313C23.1299 45.194 23.8758 42.994 24.7408 40.7877C25.4177 42.1165 26.1322 43.439 26.9094 44.7678C27.6866 46.0965 28.4826 47.3814 29.2912 48.6413ZM41.5384 14.1684C43.1651 15.8548 44.7028 17.6247 46.1453 19.471C44.6535 19.402 43.1305 19.3519 41.5886 19.3519C40.0467 19.3519 38.4547 19.3832 36.9818 19.471C38.4021 17.6211 39.9233 15.8509 41.5384 14.1684ZM29.2786 23.9023C28.4638 25.1559 27.6553 26.4846 26.8906 27.8259C26.1259 29.1673 25.3926 30.5023 24.7658 31.8248C23.8931 29.6667 23.1296 27.466 22.4781 25.2311C24.6217 24.7171 26.9094 24.2721 29.2786 23.9023ZM14.2861 44.6675C8.41945 42.1604 4.62743 38.8823 4.62743 36.2812C4.62743 33.6801 8.41945 30.3832 14.2861 27.9012C15.7089 27.2744 17.2696 26.7416 18.8741 26.2277C19.8894 29.6713 21.1353 33.0426 22.6034 36.3188C21.1478 39.573 19.9185 42.9238 18.9243 46.3473C17.2821 45.8396 15.7277 45.2817 14.2861 44.6675ZM23.1989 68.3409C20.9425 67.0498 19.9647 62.1295 20.7294 55.8053C20.9111 54.2509 21.212 52.6088 21.5755 50.9353C25.0371 51.7694 28.5508 52.3704 32.0929 52.7341C34.2046 55.6461 36.5079 58.4142 38.9874 61.0201C33.5846 66.0344 28.514 68.7859 25.0667 68.7859C24.4167 68.7956 23.7747 68.6427 23.1989 68.3409ZM62.4917 55.7176C63.2751 62.0418 62.3099 66.962 60.0723 68.2532C59.4958 68.5638 58.8462 68.7132 58.1919 68.6856C54.7572 68.6856 49.674 65.9529 44.2712 60.9637C46.7291 58.3791 49.0075 55.6295 51.0905 52.7341C54.6402 52.3715 58.1607 51.7642 61.6267 50.9165C62.0001 52.5004 62.2888 54.103 62.4917 55.7176ZM68.8723 44.6675C67.4495 45.2943 65.8888 45.827 64.2842 46.341C63.2599 42.8962 62.0035 39.5248 60.5236 36.2499C61.9763 32.9945 63.2055 29.6439 64.2028 26.2214C65.8449 26.7354 67.3972 27.2995 68.8597 27.9137C74.7201 30.4208 78.5184 33.6926 78.5184 36.2937C78.5184 38.8949 74.7389 42.1792 68.8723 44.6675Z" fill="#884DE8"/>
<path d="M41.5698 43.8527C45.7514 43.8527 49.1413 40.4628 49.1413 36.2812C49.1413 32.0996 45.7514 28.7097 41.5698 28.7097C37.3882 28.7097 33.9983 32.0996 33.9983 36.2812C33.9983 40.4628 37.3882 43.8527 41.5698 43.8527Z" fill="#884DE8"/>
</svg>
