<svg id="Layer_1" data-name="Layer 1" xmlns="http://www.w3.org/2000/svg" viewBox="0 0 460.4 420.27"><defs><style>.cls-1{fill:#ed6543;}</style></defs><path class="cls-1" d="M93.85,284.47C84.22,281,74.59,277.81,65.25,274c-18-7.41-34.92-16.56-48.55-30.8C6,231.94-.92,219.06.08,202.89c.81-12.2,6.28-22.3,14.14-31.23,13.89-15.76,31.86-25.48,50.88-33.42,7.65-3.2,15.54-5.87,23.45-8.39,3.32-1,4-2.43,3.19-5.73-5.28-20.93-8-42.17-6.58-63.78.8-12.56,3.4-24.68,9.63-35.81,10.88-19.42,30.66-27.85,53.7-22.92,21.56,4.61,39.68,15.92,56.65,29.3,8.35,6.6,16.2,13.84,24.4,20.88,8.23-7.08,16.4-14.61,25.08-21.48,14.94-11.83,30.9-22,49.46-27.38,35.46-10.3,62.72,7,69,43.59,4.38,25.62,1.19,50.73-4.42,75.73-.37,1.62-.75,3.23-1.08,4.86a1.36,1.36,0,0,0,.11.66c11.72,4.58,23.49,8.64,34.81,13.74,18.05,8.13,34.85,18.28,47,34.53,14.62,19.58,14.48,40.8-.21,60.37-10.25,13.66-23.92,23.24-39.07,30.4-13,6.15-26.74,10.85-40.16,16.17-1.52.6-3.1,1-3.61,1.22,2.77,17.84,6,35.16,8,52.62,1.92,16.31.73,32.62-4.57,48.34-9.24,27.37-31.9,39.91-60.1,33.42-21.63-5-39.74-16.65-56.76-30.24-7.92-6.32-15.35-13.26-23-20-8.52,7.28-16.86,14.89-25.71,21.86-14.84,11.69-30.7,21.76-49.14,26.91-34.77,9.73-60.29-5.79-68-41.14-4.52-20.72-3-41.4.58-62C89.42,304.2,91.75,294.5,93.85,284.47ZM230.08,130c-12.18.6-24.5,1.08-36.78,2a8.4,8.4,0,0,0-5.45,3.3A506.2,506.2,0,0,0,146,207.19a8,8,0,0,0,0,6.29c10,18.37,20.62,36.46,30.47,54.94C181,277,186.65,281.29,196.9,281c25.28-.79,50.6-.54,75.89-.91,1.4,0,3.31-1.55,4.09-2.89q18.53-31.91,36.69-64a7.89,7.89,0,0,0,.14-6.3,525,525,0,0,0-42-71.9,7.82,7.82,0,0,0-5.11-3C254.55,131,242.4,130.56,230.08,130ZM345.87,290.22a23,23,0,0,0-3.32,0c-16.87,2.83-33.72,5.85-50.63,8.41a10.84,10.84,0,0,0-7.92,4.88q-11.55,15.69-23.64,31c-5.14,6.48-10.72,12.61-16.45,19.3,8.39,7.19,16.23,14.44,24.63,21,13.45,10.45,27.71,19.6,44.54,23.83,19.25,4.84,32.18-2.41,38.1-21.33a34.56,34.56,0,0,0,1-3.85C358.28,345.06,352.61,317.64,345.87,290.22ZM214.64,353.76c-13.75-17.77-26.94-34.92-40.28-51.95a8.25,8.25,0,0,0-4.71-2.77c-11.16-1.82-22.38-3.25-33.53-5.08-7.17-1.17-14.27-2.79-21.58-4.25a18.8,18.8,0,0,0-1.15,3.09c-2.76,16.37-6.2,32.67-8,49.15-1.48,13.76-.18,27.64,5.52,40.64,5.19,11.81,13.53,17.17,26.26,16.66a47.67,47.67,0,0,0,11.74-1.9C175.42,389.32,195.62,371.85,214.64,353.76Zm.16-287.44c-12.51-12.46-26-24.21-41.66-32.85a131,131,0,0,0-27.88-11.66c-17.55-4.87-30.33,2.72-36.17,20-.42,1.26-.75,2.54-1.09,3.82-4.24,15.92-3.54,32-1.37,48.08,1.34,9.83,3.47,19.54,5.26,29.4,3.55-.77,6.28-1.5,9-1.94,17.38-2.76,34.78-5.41,52.16-8.24,2.32-.38,5.35-.86,6.65-2.45C191.51,96.05,203,81.35,214.8,66.35Zm132.14,56.16a11.81,11.81,0,0,0,1-2.44c2-12,4.74-23.84,5.86-35.88,1.28-13.54,1.28-27.26-2.72-40.6-5.71-19-18.56-26.64-37.81-21.59-27.92,7.31-48.66,25.8-68.85,44.78a6,6,0,0,0,.49,1.36c11.44,14.09,22.85,28.2,34.4,42.19a7.1,7.1,0,0,0,4.16,2c11.51,1.69,23.08,3,34.57,4.84,9.65,1.54,19.2,3.55,28.9,5.37Zm12.65,141.86c17.5-3.28,46.52-16.45,61.09-28.2a77.47,77.47,0,0,0,13.53-13.85c7.77-10.48,7.72-21.82.09-32.39a66.29,66.29,0,0,0-11.9-12.69c-17.75-14.29-38.54-22.45-60.32-29.07-.67,1.8-1.23,3.32-1.8,4.84-5.67,15.07-10.58,30.48-17.28,45.07-4,8.81-4.95,16.21.22,24.48,2.17,3.48,3.43,7.55,4.91,11.43,3.82,10,7.58,20.14,11.46,30.41Zm-260,.05a17.72,17.72,0,0,0,1.21-2c6.57-16.67,13.2-33.33,19.58-50.07a9.09,9.09,0,0,0-.34-6c-4.44-11.27-9.3-22.38-13.68-33.68-3.1-8-5.66-16.21-8.68-25-11.07,4.35-21.9,8.13-32.31,12.83-13.55,6.12-26.27,13.7-36.25,25.09C17.51,198.83,17.4,213.09,29,226.38A72.38,72.38,0,0,0,39.15,236c17.93,13.87,38.58,22,60.46,28.46Zm99.27,37.28c10.44,12.7,20.33,24.71,30.74,37.36C240,326.34,250,314.28,260.31,301.67ZM342.28,142.29l-45.94-8.16,30.22,51.7C331.92,171,336.94,157.07,342.28,142.29ZM132.85,185.76l30.06-51.53-45.73,8.38ZM340.17,270.2c-4.71-12.45-9-23.78-13.58-35.93-8.26,14.51-15.92,28-24.34,42.78Zm-206.92-36-13.46,35.88L157.56,277l-24.31-42.82Zm72.66-124.3h48l-24-28.51Z" transform="translate(0.02 0.01)"/><path class="cls-1" d="M230.18,260.13a49.78,49.78,0,1,1,.25,0Zm-.09-20a30,30,0,1,0-29.94-30.06v.18a30.27,30.27,0,0,0,29.93,29.87Z" transform="translate(0.02 0.01)"/></svg>