<svg xmlns="http://www.w3.org/2000/svg" viewBox="0 0 81.32 72.17"><defs><style>.cls-1{fill:#61dafb;stroke:#61dafb;stroke-miterlimit:10;}</style></defs><title>Asset 1</title><g id="Layer_2" data-name="Layer 2"><g id="Layer_1-2" data-name="Layer 1"><path class="cls-1" d="M80.82,36.08c0-5.64-8-9.86-18.93-12.21a60.87,60.87,0,0,0,1.78-6.73C65.32,9,64.28,3.34,60.75,1.3A6.33,6.33,0,0,0,57.58.5c-4.54,0-10.66,4.15-16.91,11C34.42,4.65,28.3.5,23.75.5a6.24,6.24,0,0,0-3.16.8c-4.9,2.83-4.52,11.93-1.11,22.55C8.58,26.21.5,30.43.5,36.08S8.55,46,19.44,48.3A63.32,63.32,0,0,0,17.65,55c-1.64,8.17-.6,13.8,2.93,15.83a6.23,6.23,0,0,0,3.17.81,11,11,0,0,0,4.21-1,24.49,24.49,0,0,0,5-3,45.74,45.74,0,0,0,4-3.36c1.22-1.15,2.44-2.41,3.67-3.76C46.91,67.52,53,71.67,57.58,71.67a6.26,6.26,0,0,0,3.16-.8c4.9-2.83,4.51-11.94,1.1-22.56C72.75,46,80.82,41.73,80.82,36.08ZM57.58,3a3.68,3.68,0,0,1,1.91.47C62,4.9,62.61,9.71,61.22,16.64a61.15,61.15,0,0,1-1.8,6.73A101.88,101.88,0,0,0,48.8,22a98.17,98.17,0,0,0-6.46-8.57C48.12,7,53.73,3,57.58,3ZM50.93,42c-1.13,2-2.32,3.89-3.53,5.73-2.17.13-4.41.2-6.74.2s-4.56-.07-6.72-.2C32.72,45.9,31.53,44,30.39,42s-2.22-4-3.19-5.93q1.49-3,3.19-5.93c1.14-2,2.33-3.89,3.54-5.73,2.17-.12,4.41-.19,6.73-.19s4.56.07,6.73.2c1.21,1.83,2.4,3.74,3.54,5.72s2.22,4,3.19,5.93C53.14,38.05,52.07,40,50.93,42Zm4.56-3.11c1.21,2.62,2.24,5.14,3.1,7.53-2.51.45-5.2.82-8.07,1.08q1.32-2.07,2.58-4.25C53.94,41.81,54.73,40.36,55.49,38.9ZM45.63,50.32c-1.62,2.31-3.28,4.48-5,6.47-1.66-2-3.33-4.14-5-6.46,1.65.07,3.31.12,5,.12S44,50.4,45.63,50.32ZM30.8,47.51c-2.87-.26-5.58-.62-8.09-1.08.89-2.44,1.94-5,3.13-7.53.76,1.47,1.56,2.93,2.39,4.36S29.93,46.13,30.8,47.51Zm-5-14.25c-1.22-2.61-2.24-5.13-3.11-7.53,2.51-.45,5.2-.82,8.07-1.07-.87,1.37-1.73,2.79-2.57,4.24S26.6,31.81,25.84,33.26ZM35.7,21.84c1.63-2.32,3.3-4.47,5-6.45,1.66,2,3.33,4.13,5,6.45-1.65-.07-3.3-.12-5-.12S37.35,21.77,35.7,21.84ZM53.1,28.9q-1.26-2.17-2.58-4.25c2.88.26,5.58.63,8.09,1.08-.89,2.45-1.93,5-3.12,7.54C54.72,31.8,53.93,30.34,53.1,28.9ZM21.83,3.47A3.72,3.72,0,0,1,23.75,3C27.59,3,33.2,7,39,13.45A98.38,98.38,0,0,0,32.52,22a99.24,99.24,0,0,0-10.6,1.34C18.55,13,18.67,5.3,21.83,3.47ZM3,36.08c0-3.65,6.57-7.58,17.28-9.87a99.18,99.18,0,0,0,4.14,9.85A97.6,97.6,0,0,0,20.23,46C9.55,43.65,3,39.73,3,36.08ZM35.27,62.55a47,47,0,0,1-3.77,3.18A22.69,22.69,0,0,1,27,68.4c-2.15.9-3.91,1-5.16.3-2.49-1.45-3.12-6.25-1.73-13.18a61.15,61.15,0,0,1,1.8-6.73,99.26,99.26,0,0,0,10.62,1.35A98.44,98.44,0,0,0,39,58.72C37.75,60.11,36.5,61.39,35.27,62.55ZM59.49,68.7a3.78,3.78,0,0,1-1.91.47c-3.85,0-9.46-4-15.25-10.47a98.62,98.62,0,0,0,6.47-8.56A98.91,98.91,0,0,0,59.4,48.8C62.77,59.22,62.66,66.87,59.49,68.7ZM61,46A97.82,97.82,0,0,0,56.9,36.1a96.51,96.51,0,0,0,4.19-9.88c10.68,2.3,17.23,6.21,17.23,9.86S71.75,43.66,61,46Z"/></g></g></svg>