<svg width="24" height="24" viewBox="0 0 24 24" fill="none" xmlns="http://www.w3.org/2000/svg">
<path d="M6 21L12 16L18 21M12 13V21M14 5L17 10.5M3.29397 13.6775L3.45997 13.9585C3.97997 14.8385 5.08397 15.2235 6.06497 14.8685L20.307 9.70352C20.4475 9.65504 20.5758 9.57652 20.6829 9.47341C20.79 9.37031 20.8733 9.24511 20.9271 9.10652C20.9809 8.96794 21.0038 8.81929 20.9943 8.67094C20.9848 8.52259 20.943 8.37809 20.872 8.24752L18.252 3.54252C18.1118 3.29911 17.8828 3.11943 17.613 3.04113C17.3433 2.96284 17.0537 2.992 16.805 3.12252L16.749 3.15452L4.05497 10.7725C3.03497 11.3855 2.69797 12.6695 3.29497 13.6775H3.29397Z" stroke="#EEFF04" stroke-linecap="round" stroke-linejoin="round"/>
</svg>
