<svg xmlns="http://www.w3.org/2000/svg" viewBox="0 0 251.37 251.37"><defs><style>.cls-1{fill:#f8f8f8;}.cls-2{fill:#dfdfdf;}.cls-3{fill:#ec6442;}</style></defs><title>Asset 1</title><g id="Layer_2" data-name="Layer 2"><g id="Layer_1-2" data-name="Layer 1"><circle class="cls-1" cx="125.69" cy="125.69" r="124.88"/><path class="cls-2" d="M125.68,251.37a125.68,125.68,0,1,1,88.88-36.81A125.69,125.69,0,0,1,125.68,251.37Zm0-249.75A124.2,124.2,0,0,0,1.62,125.68c0,68.4,55.65,124.08,124.06,124.08a124.07,124.07,0,1,0,0-248.14Z"/><g id="Layer_2-2" data-name="Layer 2"><g id="Layer_1-2-2" data-name="Layer 1-2"><path id="path2" class="cls-3" d="M161.57,169.47l-25.81-43.34,25.81-43.34L174,126.13Zm-57.33-3.05-32.37-32h51.52l25.76,43.24Zm0-78.63L149,76.57,123.26,120H71.74Zm65.94-32.68L111.49,70.34l-8.74,15-17.62-.14L42.07,127,85.13,169l17.62-.15,8.74,15,58.69,15.31L186,142l-8.88-14.85L186,112.34Z"/></g></g></g></g></svg>