<svg width="2891" height="694" viewBox="0 0 2891 694" fill="none" xmlns="http://www.w3.org/2000/svg">
<rect x="1" width="2890" height="694" fill="#231F1F"/>
<path opacity="0.25" d="M2064.01 246.304C2069.63 246.304 2074.19 241.732 2074.19 236.092C2074.19 230.452 2069.63 225.88 2064.01 225.88C2058.39 225.88 2053.83 230.452 2053.83 236.092C2053.83 241.732 2058.39 246.304 2064.01 246.304Z" fill="white" stroke="#EEFF04" stroke-width="0.2"/>
<g opacity="0.25">
<path d="M2891 292.138H2650.32C2373.6 292.138 2253.34 224.981 2147.25 160.455C2061.98 108.595 1988.33 12.0728 1851.67 12.0728C1681.01 12.0728 1611.02 100.071 1485.79 219.656C1424.75 277.951 1186.1 444.433 874.926 435.727C821.958 434.242 199.704 315.406 1.02344 315.406" stroke="white" stroke-width="3" stroke-miterlimit="10"/>
<path d="M2891 380.572H2399.9C2128.81 380.572 1958.02 270.345 1845.09 297.621C1646.39 345.628 1655.11 706.399 1433.02 670.743C1366.42 660.045 1271.85 497.379 1034.31 382.866C796.768 268.352 1.01172 335.136 1.01172 335.136" stroke="white" stroke-width="0.75" stroke-miterlimit="10"/>
<path d="M2891 365.841H2575.58C2568.49 365.841 2428.08 365.575 2422.15 365.092C2163.52 362.412 2004.29 259.26 1895.47 274.776C1746.94 295.942 1713.95 484.774 1590.41 545.943C1561.72 560.154 1529.26 565.95 1489.82 562.171C1414.88 554.998 1326.8 429.159 1109.59 355.674C1024.8 326.986 841.758 342.405 642.091 336.995C392.476 330.294 34.1465 331.864 1.03711 331.864" stroke="white" stroke-width="0.5" stroke-miterlimit="10"/>
<path d="M2891 351.097H2590.52C2576.36 351.097 2456.27 350.566 2444.39 349.6C2198.22 344.239 2050.99 255.263 1945.82 251.906C1810.05 247.572 1768.69 389.748 1642.65 439.168C1613.94 450.421 1582.58 458.185 1546.56 453.585C1463.62 442.996 1379.86 361.807 1184.83 328.47C1104.83 314.802 910.611 362.81 688.654 356.736C478.371 351.085 67.2542 328.567 1.02344 328.567" stroke="white" stroke-width="0.5" stroke-miterlimit="10"/>
<path d="M2891 336.354H2605.47C2584.22 336.354 2484.44 335.557 2466.62 334.108C2232.89 326.078 2098 238.587 1996.17 229.036C1873.54 217.542 1823.53 294.926 1694.9 332.381C1666.21 340.737 1636.29 347.704 1603.31 344.975C1511.31 337.38 1430 320.741 1260.06 301.253C1184.5 292.584 979.477 383.202 735.207 376.465C564.244 371.852 100.352 325.257 1.01172 325.257" stroke="white" stroke-width="0.5" stroke-miterlimit="10"/>
<path d="M2891 321.625H2620.42C2592.08 321.625 2512.63 320.562 2488.86 318.618C2267.59 307.908 2145.03 229.582 2046.52 206.181C1937.05 180.161 1878.49 200.362 1747.16 225.621C1718.5 231.139 1689.94 234.218 1660.08 236.404C1559.04 243.805 1481.58 235.269 1335.3 274.064C1262.94 293.262 1048.34 403.622 781.784 396.232C650.153 392.658 133.473 321.987 1.01172 321.987" stroke="white" stroke-width="0.5" stroke-miterlimit="10"/>
<path d="M2891 306.881H2635.37C2599.95 306.881 2540.81 305.565 2511.1 303.126C2302.29 289.735 2191.59 221.781 2096.88 183.312C2000.03 143.973 1933.44 106.072 1799.4 118.847C1770.77 121.575 1743.54 124.292 1716.83 127.818C1607.27 142.283 1533.94 177.238 1410.54 246.871C1342.78 285.111 1117.21 424.039 828.337 415.985C736.038 413.462 166.571 318.702 1 318.702" stroke="white" stroke-width="0.5" stroke-miterlimit="10"/>
<path d="M2891 292.138H2650.31C2373.6 292.138 2253.34 224.981 2147.25 160.455C2061.98 108.595 1988.33 12.0728 1851.67 12.0728C1681.01 12.0728 1611.02 100.071 1485.79 219.656C1424.75 277.951 1186.1 444.433 874.926 435.727C821.958 434.242 199.704 315.406 1.02344 315.406" stroke="white" stroke-width="0.75" stroke-miterlimit="10"/>
<path d="M2016.48 364.217C2022.52 364.217 2027.41 359.308 2027.41 353.253C2027.41 347.198 2022.52 342.29 2016.48 342.29C2010.45 342.29 2005.55 347.198 2005.55 353.253C2005.55 359.308 2010.45 364.217 2016.48 364.217Z" fill="white" stroke="#EEFF04" stroke-width="0.2"/>
</g>
<path opacity="0.25" d="M489.388 405.887C495.01 405.887 499.567 401.315 499.567 395.676C499.567 390.036 495.01 385.464 489.388 385.464C483.766 385.464 479.209 390.036 479.209 395.676C479.209 401.315 483.766 405.887 489.388 405.887Z" fill="white" stroke="#EEFF04" stroke-width="0.2"/>
<path opacity="0.25" d="M2381.36 367.104C2386.99 367.104 2391.54 362.532 2391.54 356.892C2391.54 351.252 2386.99 346.68 2381.36 346.68C2375.74 346.68 2371.19 351.252 2371.19 356.892C2371.19 362.532 2375.74 367.104 2381.36 367.104Z" fill="white" stroke="#EEFF04" stroke-width="0.2"/>
</svg>
